<svg id="0e06cf25-4bae-42df-ae01-90687c500e7e" data-name="Layer 1" xmlns="http://www.w3.org/2000/svg" viewBox="0 0 450 248"><title>luca_telefonica_data_unit</title><g id="0fc41640-e95c-4a56-867b-04292d213fb8" data-name="Logo"><path d="M104.21,193.41c-3,4.34-7.1,8.28-10.66,8.28-1.54.06-2.21-.83-2.17-2.6a16.7,16.7,0,0,1,.45-3.3,34.41,34.41,0,0,0,9.85-6.84c1.69-1.86,2.84-3.7,2.9-5.62s-1.09-2.72-3.32-2.75c-3.23-.06-7.1,2.17-9.61,4.89-3.32,3.64-5.83,8.8-5.92,13.38,0,3.24,1.48,5.84,5.59,5.68,4.44-.12,8.76-3.58,11-6.08a12.2,12.2,0,0,0-.45,2.9,5.59,5.59,0,0,0,4.23,5.77l.54-.24a7,7,0,0,1-.24-2.54c.18-2.81,1.3-6,2.9-10.11,3.08-7.85,7.58-16.87,9.55-22.15l-4.71.92a2.17,2.17,0,0,0-1.45,1.25c-2.27,4.89-4.59,10.08-7.52,16.87a19.25,19.25,0,0,1-1,2.29M99.8,183c.72,0,1,.52,1,1.16,0,3.06-3.75,7-8.52,9.87,1.21-4.77,4.59-11.09,7.52-11" fill="#999"/><path d="M180.33,201.24c0,2.17,1.36,3.51,4,3.45s5.44-1.68,7.7-3.88c.45,2.35,2.08,4,5.5,3.94s6.95-2.38,9.3-5v.76c0,2.41,1.24,4.22,4,4.22,2.93,0,6.31-2.23,9-6l.09.06a17.83,17.83,0,0,0-.57,3.48,4.68,4.68,0,0,0,4,5l.57-.24c-.88-2.11.33-7.33.82-9a140,140,0,0,1,6.16-15.67,7.72,7.72,0,0,0-4.29-1.13c-6.1-.21-12.23,2.29-16.7,10.33a35.1,35.1,0,0,0-2.21,4.67A16.31,16.31,0,0,1,206,198c-1.6,1.56-3.9,3.58-6.25,3.61-1.33,0-2.05-.92-2-2.6,0-6.42,5.62-16.13,9.39-16.16,1,0,1.48.46,1.48,1.34a5.32,5.32,0,0,1-1.72,3.48l.45.4c2.54-1,4.89-2.78,4.92-4.67,0-2.17-2.48-2.57-4.68-2.57a13.63,13.63,0,0,0-9.61,4.77,23.74,23.74,0,0,0-6,12.5c-1.69,2-3.59,3.36-4.83,3.39a1.05,1.05,0,0,1-1.21-1.13,13.79,13.79,0,0,1,1-3.79c1.63-4.16,4-9.29,6.92-15.4,0,0-4.44.76-5.07.95a2.15,2.15,0,0,0-1.48,1.22c-1.9,4.06-4.17,8.77-5.56,12.28a17.94,17.94,0,0,0-1.42,5.59m41.5-17.54a5.67,5.67,0,0,1,3.59-.52c-.39.79-2.08,4.28-3.41,7.39-2.11,4.92-5.26,9.87-8.19,10.57-1,.28-1.6-.15-1.57-1.16.09-4.34,4.8-14,9.58-16.29" fill="#999"/><path d="M118,185.53c-3.29,3.64-5.86,8.8-5.89,13.38,0,3.18,1.63,5.84,5.86,5.68,4.53-.12,8.67-2.78,12.23-6.57-.91,2.44-1.66,4.52-2.14,5.65-1.33,3.33-2.3,6-4.32,7.61l.21.4c6,.34,8.22-3.91,10.66-10.82s4.56-13,6.16-17.17c2.63,0,6.31.09,8.4-.4-5.41,2.44-10,11.18-9.48,17,.24,2.57,1.75,4.31,5,4.31,6.19,0,11.45-7.46,13.44-12.37a23.44,23.44,0,0,0,2-7.64c1.48-.28,2.9-.52,3.62-.64,1.36-.18,1.09,1.34.66,2.48-2.54,7.18-6.95,17.63-6.95,17.78h4.86c2.11-4.43,3.41-7.27,5.07-10.3,2-3.54,6.52-9.38,8.34-9.41.63,0,.79.4.63,1-.33,2.41-6.13,11.61-6,16.16a5.27,5.27,0,0,0,4.32,5.47l.57-.31a5,5,0,0,1-.39-2.41c-.06-3,2.39-8.37,3.32-10.42,1.51-3.24,4.17-8,4-10.57-.09-1.25-1-2.38-3.17-2.41-4,0-7.91,3.88-11.21,9.11l-.09,0c1.33-3,2.36-5.84,2.33-7.21s-.72-1.74-2.21-1.74a20.5,20.5,0,0,0-3.87.83c-2,.49-4,1.07-6.28,1.53-1.39.18-1.87.46-1.84.95.27,8-5.07,17.36-8.64,17.39-1.54,0-1.9-1.13-1.9-2.69,0-5.5,4.47-14.79,8.85-16.22l1-.28.54-1.5a31,31,0,0,1-4.29.24h-9.61c2.54-6.11,6.13-10.08,11.36-10.3,3.23-.12,5.41,1.13,5.59,3a5,5,0,0,1-1.57,4.22l.36.37c2.87-1.37,4.83-3.7,4.83-5.29,0-2.44-2.9-4-7.55-3.91-6,.06-13.23,1.41-18.37,12.1a6.76,6.76,0,0,0-4.08,2.08l.21.46a8.79,8.79,0,0,1,2.93-.34c-.69,1.77-2.11,5.56-3.53,9.47-4.29,5.74-8.61,8.46-11.78,8.46-1.72.06-2.45-.92-2.45-2.6a13.37,13.37,0,0,1,.45-3.3A34.41,34.41,0,0,0,128,189c1.69-1.86,2.87-3.7,2.93-5.62s-1.09-2.72-3.32-2.75c-3.23,0-7.1,2.23-9.64,4.95m8.13-2.57c.72,0,1,.52,1,1.16,0,3.06-3.75,7-8.55,9.87,1.24-4.77,4.59-11.09,7.52-11" fill="#999"/><path d="M193.92,177.49a3.4,3.4,0,0,0,3-2.81c.33-1.56-.54-2.75-1.93-2.69a3.45,3.45,0,0,0-3,2.78c-.24,1.53.57,2.75,2,2.72" fill="#999"/><path d="M145.23,221.28c-49.24,0-99.23.61-99.23,1.34S96,224,145.23,224s99.23-.64,99.23-1.38-50-1.34-99.23-1.34" fill="#999"/><path d="M65.72,185.81l.33-.28a5.84,5.84,0,0,1-.6-2.81c.15-6.48,6.92-10.17,17.49-10.17H88.8a19.69,19.69,0,0,0-8.46,9.69c-.94,2.14-5.41,13.75-7.25,18.94-2.27,6.2-3.72,9-5.53,10.05l.3.55c5.07.34,8.1-2.29,10-7.15,1.84-4.55,4.32-11.86,5.53-15.09,3.9-10.45,5.59-14.79,8.7-17,4.32,0,8.49,0,8.49,0,4.65-.12,6.65-1.28,8.1-3.12l-.33-.4c-1.09.64-3.62.73-5.74.76h-21c-11.81,0-19.06,3.91-20.24,9.78a5,5,0,0,0,4.35,6.26" fill="#999"/><path d="M250.65,183h5.89c3,0,5.71.52,7.37,2.26,1.3,1.37,1.72,3.27,1.72,5.56a13.33,13.33,0,0,1-3.26,9.23c-2.17,2.23-5.07,3-9.06,3h-6.13l3.47-20m3.17,16.71c2.45,0,4.08-.61,5.35-2.48a11.48,11.48,0,0,0,1.81-6.32,4.93,4.93,0,0,0-1-3.39c-.69-.79-1.78-1.19-3.59-1.19h-1.84l-2.3,13.38Z" fill="#999"/><path d="M275.23,183h5l3.69,20h-4.62l-.79-5H272l-2.39,5h-4.53l10.12-20m2.72,11.7-1-7h-.06l-3.26,7Z" fill="#999"/><polyline points="292.78 186.26 286.65 186.26 287.23 182.96 304.26 182.96 303.33 186.26 297.35 186.26 294.42 203.01 289.88 203.01 292.78 186.26" fill="#999"/><path d="M310.67,183h5l3.69,20h-4.62l-.79-5h-6.43l-2.39,5h-4.53l10.09-20m2.72,11.7-1-7h-.06l-3.26,7Z" fill="#999"/><path d="M337.76,201.69a6,6,0,0,1-2-4.92,17.55,17.55,0,0,1,.33-3.24l1.87-10.6h4.44l-2.05,11.79a12.83,12.83,0,0,0-.21,2,3.36,3.36,0,0,0,.6,2.11,3.19,3.19,0,0,0,2.72,1.07,3.94,3.94,0,0,0,3.14-1.22,7,7,0,0,0,1.39-3.64L350.15,183h4l-2.36,13.44a8.18,8.18,0,0,1-2.66,5.16,8.6,8.6,0,0,1-5.86,1.83,8.42,8.42,0,0,1-5.56-1.74" fill="#999"/><polyline points="358.72 182.96 362.02 182.96 369.18 196.07 371.47 182.96 375.46 182.96 371.95 203.01 368.39 203.01 361.41 190.51 359.24 203.01 355.25 203.01 358.72 182.96" fill="#999"/><polyline points="380.2 182.96 384.76 182.96 381.26 203.01 376.76 203.01 380.2 182.96" fill="#999"/><polyline points="393.52 186.26 387.39 186.26 387.96 182.96 405 182.96 404.03 186.26 398.05 186.26 395.15 203.01 390.62 203.01 393.52 186.26" fill="#999"/></g><g id="4f7bdabb-4e47-420e-b273-fde2af925b91" data-name="Logo"><path d="M68.17,136.94A8.77,8.77,0,0,1,62,134.4C60,132.46,50.57,123.07,48.56,121A8.66,8.66,0,0,1,46,114.84V48.66a2.5,2.5,0,0,1,2.5-2.48h18A2.5,2.5,0,0,1,69,48.66v63.21a2.81,2.81,0,0,0,3,3h32.65a2.5,2.5,0,0,1,2.5,2.48v17.13a2.5,2.5,0,0,1-2.5,2.48C98.87,136.94,72.25,136.94,68.17,136.94Zm116.76,0a8.77,8.77,0,0,0,6.21-2.54c1.95-1.94,11.39-11.32,13.4-13.38a8.66,8.66,0,0,0,2.56-6.18V48.66a2.5,2.5,0,0,0-2.5-2.48h-18a2.5,2.5,0,0,0-2.5,2.48v63.21a2.81,2.81,0,0,1-3,3H156.37a2.84,2.84,0,0,1-3-3V48.66a2.5,2.5,0,0,0-2.5-2.48h-18a2.5,2.5,0,0,0-2.5,2.48v66.18a8.66,8.66,0,0,0,2.56,6.18l13.4,13.38a8.77,8.77,0,0,0,6.21,2.54Zm47.14-22.1a8.66,8.66,0,0,0,2.56,6.18c1.95,1.94,11.39,11.32,13.46,13.32a8.77,8.77,0,0,0,6.21,2.54h45a2.5,2.5,0,0,0,2.5-2.48V117.26a2.5,2.5,0,0,0-2.5-2.48H258a2.81,2.81,0,0,1-3-3V71.19a2.84,2.84,0,0,1,3-3h41.3a2.5,2.5,0,0,0,2.5-2.48V48.48a2.5,2.5,0,0,0-2.5-2.48h-45a8.77,8.77,0,0,0-6.21,2.54L234.64,61.86A8.66,8.66,0,0,0,232.08,68ZM350.36,46.18a8.77,8.77,0,0,0-6.21,2.54c-1.95,1.94-11.39,11.32-13.4,13.38a8.66,8.66,0,0,0-2.56,6.18v66.18a2.5,2.5,0,0,0,2.5,2.48h18a2.5,2.5,0,0,0,2.5-2.48v-26a2.81,2.81,0,0,1,3-3h24.67a2.84,2.84,0,0,1,3,3v26a2.5,2.5,0,0,0,2.5,2.48h18a2.5,2.5,0,0,0,2.5-2.48V68.28a8.66,8.66,0,0,0-2.56-6.18L389,48.72a8.77,8.77,0,0,0-6.21-2.54Zm31.55,40a2.81,2.81,0,0,1-3,3H354.2a2.84,2.84,0,0,1-3-3V71.25a2.81,2.81,0,0,1,3-3h24.67a2.84,2.84,0,0,1,3,3Z"/></g><rect width="450" height="247.99" fill="none"/></svg>