<svg xmlns="http://www.w3.org/2000/svg" xmlns:xlink="http://www.w3.org/1999/xlink" viewBox="0 0 720 580"><defs><style>.\31 3b3480e-1d3a-41dc-8529-1fcff01203ea,.\31 cf40239-9f46-4271-9085-2eacc5f59eea,.\37 53d03d7-c128-4264-93e7-dc94daab4921,.acc2f94e-750c-42ee-bee7-15664927e92f,.e895c01d-9b5f-48ce-85fc-d7de5b072c9a{fill:none;}.\38 256a525-9b0a-464a-b6e5-058171ce879a{clip-path:url(#57faf70b-9caf-4f65-bdb7-51ea27e1ef4f);}.\30 ddab770-a4c1-482e-bf8d-810be85430d1{isolation:isolate;}.f238f35f-b6a1-4589-8e4a-7b64aa49158b{clip-path:url(#7bafece7-95bd-4731-8bb9-8ddf07709a97);}.f225310e-de69-4e74-8f4e-70dc9a5ac394{clip-path:url(#8033a45e-f249-4597-87ef-64aff851d337);}.\31 3e6472a-6791-4d24-9d74-862279a466bf{fill:#fff;fill-rule:evenodd;}.\31 3b3480e-1d3a-41dc-8529-1fcff01203ea,.\31 cf40239-9f46-4271-9085-2eacc5f59eea,.e895c01d-9b5f-48ce-85fc-d7de5b072c9a{stroke:#eee;}.\31 3b3480e-1d3a-41dc-8529-1fcff01203ea,.\31 cf40239-9f46-4271-9085-2eacc5f59eea,.\37 53d03d7-c128-4264-93e7-dc94daab4921,.e895c01d-9b5f-48ce-85fc-d7de5b072c9a{stroke-miterlimit:10;}.\31 3b3480e-1d3a-41dc-8529-1fcff01203ea{stroke-dasharray:3.97 3.97;}.\31 cf40239-9f46-4271-9085-2eacc5f59eea{stroke-dasharray:4;}.\37 53d03d7-c128-4264-93e7-dc94daab4921{stroke:#d9d9d9;}.a0475442-8365-40a4-844b-a9eed55b330c{font-size:12px;}.\35 4dd68e6-249e-4806-a60e-39dcde000d10,.\36 a965af3-bddb-4b74-84d2-643a6214f2b0,.a0475442-8365-40a4-844b-a9eed55b330c{font-family:Telefonica-Light, Telefonica;}.\35 9c909c6-f76b-4d13-a140-b462c3024dc6{letter-spacing:-0.03em;}.\33 7232915-5d41-4680-8e6d-858800a9bbdb{letter-spacing:-0.01em;}.\33 5a5c6e2-16f3-44e2-a8ce-f59bae33aabc{letter-spacing:0em;}.\37 fdb787c-fcec-413b-bac5-f3b734247b7e{letter-spacing:-0.03em;}.\39 91b7e45-cf30-43ac-9e7d-0895e7fe4968{letter-spacing:-0.01em;}.\35 4dd68e6-249e-4806-a60e-39dcde000d10,.\36 a965af3-bddb-4b74-84d2-643a6214f2b0{font-size:16px;}.\36 a965af3-bddb-4b74-84d2-643a6214f2b0{letter-spacing:-0.01em;}.e93c7dc9-2e44-4223-9d5a-15e654862f33{letter-spacing:0em;}.dbd44546-69f9-4ac4-9926-0236a49f5cd1{fill:#e90d8b;opacity:0.7;}</style><clipPath id="57faf70b-9caf-4f65-bdb7-51ea27e1ef4f"><rect class="acc2f94e-750c-42ee-bee7-15664927e92f" x="1078.5" y="-643.5" width="1280" height="1978"/></clipPath><clipPath id="7bafece7-95bd-4731-8bb9-8ddf07709a97"><rect class="acc2f94e-750c-42ee-bee7-15664927e92f" x="-982.5" y="-643.5" width="3427" height="1988"/></clipPath><clipPath id="8033a45e-f249-4597-87ef-64aff851d337"><rect class="acc2f94e-750c-42ee-bee7-15664927e92f" x="1207.5" y="149.5" width="1093" height="614"/></clipPath></defs><title>bubble-mock</title><g id="cf505db8-a66f-4378-a4b5-f134b90307fe" data-name="Layer 1"><g class="8256a525-9b0a-464a-b6e5-058171ce879a"><g class="0ddab770-a4c1-482e-bf8d-810be85430d1"><g class="f238f35f-b6a1-4589-8e4a-7b64aa49158b"><g class="f225310e-de69-4e74-8f4e-70dc9a5ac394"><path class="13e6472a-6791-4d24-9d74-862279a466bf" d="M-972.5,151.5a3,3,0,0,0-3,3v602a3,3,0,0,0,3,3h1081a3,3,0,0,0,3-3v-602a3,3,0,0,0-3-3Z"/></g></g></g></g></g><g id="ad7e1f26-b475-4f13-b1ad-3b1c9f0cad8b" data-name="Layer 4"><line class="e895c01d-9b5f-48ce-85fc-d7de5b072c9a" x1="150.5" y1="19.5" x2="150.5" y2="21.5"/><line class="13b3480e-1d3a-41dc-8529-1fcff01203ea" x1="150.5" y1="25.47" x2="150.5" y2="515.52"/><line class="e895c01d-9b5f-48ce-85fc-d7de5b072c9a" x1="150.5" y1="517.5" x2="150.5" y2="519.5"/><line class="e895c01d-9b5f-48ce-85fc-d7de5b072c9a" x1="250.5" y1="19.5" x2="250.5" y2="21.5"/><line class="13b3480e-1d3a-41dc-8529-1fcff01203ea" x1="250.5" y1="25.47" x2="250.5" y2="515.52"/><line class="e895c01d-9b5f-48ce-85fc-d7de5b072c9a" x1="250.5" y1="517.5" x2="250.5" y2="519.5"/><line class="e895c01d-9b5f-48ce-85fc-d7de5b072c9a" x1="350.5" y1="19.5" x2="350.5" y2="21.5"/><line class="13b3480e-1d3a-41dc-8529-1fcff01203ea" x1="350.5" y1="25.47" x2="350.5" y2="515.52"/><line class="e895c01d-9b5f-48ce-85fc-d7de5b072c9a" x1="350.5" y1="517.5" x2="350.5" y2="519.5"/><line class="e895c01d-9b5f-48ce-85fc-d7de5b072c9a" x1="450.5" y1="19.5" x2="450.5" y2="21.5"/><line class="13b3480e-1d3a-41dc-8529-1fcff01203ea" x1="450.5" y1="25.47" x2="450.5" y2="515.52"/><line class="e895c01d-9b5f-48ce-85fc-d7de5b072c9a" x1="450.5" y1="517.5" x2="450.5" y2="519.5"/><line class="e895c01d-9b5f-48ce-85fc-d7de5b072c9a" x1="550.5" y1="19.5" x2="550.5" y2="21.5"/><line class="13b3480e-1d3a-41dc-8529-1fcff01203ea" x1="550.5" y1="25.47" x2="550.5" y2="515.52"/><line class="e895c01d-9b5f-48ce-85fc-d7de5b072c9a" x1="550.5" y1="517.5" x2="550.5" y2="519.5"/><line class="e895c01d-9b5f-48ce-85fc-d7de5b072c9a" x1="650.5" y1="19.5" x2="650.5" y2="21.5"/><line class="13b3480e-1d3a-41dc-8529-1fcff01203ea" x1="650.5" y1="25.47" x2="650.5" y2="515.52"/><line class="e895c01d-9b5f-48ce-85fc-d7de5b072c9a" x1="650.5" y1="517.5" x2="650.5" y2="519.5"/><line class="1cf40239-9f46-4271-9085-2eacc5f59eea" x1="100.5" y1="69.5" x2="700.5" y2="69.5"/><line class="1cf40239-9f46-4271-9085-2eacc5f59eea" x1="100.5" y1="169.5" x2="700.5" y2="169.5"/><line class="1cf40239-9f46-4271-9085-2eacc5f59eea" x1="100.5" y1="269.5" x2="700.5" y2="269.5"/><line class="1cf40239-9f46-4271-9085-2eacc5f59eea" x1="100.5" y1="369.5" x2="700.5" y2="369.5"/><line class="1cf40239-9f46-4271-9085-2eacc5f59eea" x1="100.5" y1="469.5" x2="700.5" y2="469.5"/><line class="e895c01d-9b5f-48ce-85fc-d7de5b072c9a" x1="150.5" y1="529.5" x2="150.5" y2="519.5"/><line class="e895c01d-9b5f-48ce-85fc-d7de5b072c9a" x1="250.5" y1="529.5" x2="250.5" y2="519.5"/><line class="e895c01d-9b5f-48ce-85fc-d7de5b072c9a" x1="350.5" y1="529.5" x2="350.5" y2="519.5"/><line class="e895c01d-9b5f-48ce-85fc-d7de5b072c9a" x1="450.5" y1="529.5" x2="450.5" y2="519.5"/><line class="e895c01d-9b5f-48ce-85fc-d7de5b072c9a" x1="550.5" y1="529.5" x2="550.5" y2="519.5"/><line class="e895c01d-9b5f-48ce-85fc-d7de5b072c9a" x1="650.5" y1="529.5" x2="650.5" y2="519.5"/><line class="e895c01d-9b5f-48ce-85fc-d7de5b072c9a" x1="100.5" y1="69.5" x2="90.5" y2="69.5"/><line class="e895c01d-9b5f-48ce-85fc-d7de5b072c9a" x1="100.5" y1="169.5" x2="90.5" y2="169.5"/><line class="e895c01d-9b5f-48ce-85fc-d7de5b072c9a" x1="100.5" y1="269.5" x2="90.5" y2="269.5"/><line class="e895c01d-9b5f-48ce-85fc-d7de5b072c9a" x1="100.5" y1="369.5" x2="90.5" y2="369.5"/><line class="e895c01d-9b5f-48ce-85fc-d7de5b072c9a" x1="100.5" y1="469.5" x2="90.5" y2="469.5"/></g><g id="47788a24-9247-4117-acec-2ab1ed9fc545" data-name="Layer 3"><rect class="753d03d7-c128-4264-93e7-dc94daab4921" x="100.5" y="19.5" width="600" height="500"/><text class="a0475442-8365-40a4-844b-a9eed55b330c" transform="translate(60.93 72.83)">High</text><text class="a0475442-8365-40a4-844b-a9eed55b330c" transform="translate(16.72 172.83)">Medium-High</text><text class="a0475442-8365-40a4-844b-a9eed55b330c" transform="translate(135.83 542.83)">18-29</text><text class="a0475442-8365-40a4-844b-a9eed55b330c" transform="translate(235.83 542.83)">30-39</text><text class="a0475442-8365-40a4-844b-a9eed55b330c" transform="translate(335.83 542.83)">40-49</text><text class="a0475442-8365-40a4-844b-a9eed55b330c" transform="translate(435.83 542.83)">50-59</text><text class="a0475442-8365-40a4-844b-a9eed55b330c" transform="translate(535.83 542.83)">60-69</text><text class="a0475442-8365-40a4-844b-a9eed55b330c" transform="translate(641.04 542.83)">&gt;69</text><text class="a0475442-8365-40a4-844b-a9eed55b330c" transform="translate(43.1 272.83)">Medium</text><text class="a0475442-8365-40a4-844b-a9eed55b330c" transform="translate(19.53 372.83)">Medium-<tspan class="59c909c6-f76b-4d13-a140-b462c3024dc6" x="44.21" y="0">L</tspan><tspan class="37232915-5d41-4680-8e6d-858800a9bbdb" x="49.66" y="0">o</tspan><tspan class="35a5c6e2-16f3-44e2-a8ce-f59bae33aabc" x="55.77" y="0">w</tspan></text><text class="a0475442-8365-40a4-844b-a9eed55b330c" transform="translate(63.74 472.83)"><tspan class="7fdb787c-fcec-413b-bac5-f3b734247b7e">L</tspan><tspan class="991b7e45-cf30-43ac-9e7d-0895e7fe4968" x="5.45" y="0">o</tspan><tspan x="11.57" y="0">w</tspan></text><text class="54dd68e6-249e-4806-a60e-39dcde000d10" transform="translate(46.64 33.5)">RENT</text><text class="6a965af3-bddb-4b74-84d2-643a6214f2b0" transform="translate(673.65 564)">A<tspan class="e93c7dc9-2e44-4223-9d5a-15e654862f33" x="8.86" y="0">GE</tspan></text></g><g id="0757143b-1c77-4521-9144-e61512904fb1" data-name="Layer 5"><circle class="dbd44546-69f9-4ac4-9926-0236a49f5cd1" cx="150.5" cy="69.5" r="6.74"/><circle class="dbd44546-69f9-4ac4-9926-0236a49f5cd1" cx="250.5" cy="69.5" r="12.73"/><circle class="dbd44546-69f9-4ac4-9926-0236a49f5cd1" cx="150.5" cy="169.5" r="9.73"/><circle class="dbd44546-69f9-4ac4-9926-0236a49f5cd1" cx="250.5" cy="169.5" r="18"/><circle class="dbd44546-69f9-4ac4-9926-0236a49f5cd1" cx="150.5" cy="269.5" r="21.04"/><circle class="dbd44546-69f9-4ac4-9926-0236a49f5cd1" cx="250.5" cy="269.5" r="42.88"/><circle class="dbd44546-69f9-4ac4-9926-0236a49f5cd1" cx="150.5" cy="369.5" r="18.49"/><circle class="dbd44546-69f9-4ac4-9926-0236a49f5cd1" cx="250.5" cy="369.5" r="23.41"/><circle class="dbd44546-69f9-4ac4-9926-0236a49f5cd1" cx="150.5" cy="469.5" r="9.73"/><circle class="dbd44546-69f9-4ac4-9926-0236a49f5cd1" cx="250.5" cy="469.5" r="8"/><circle class="dbd44546-69f9-4ac4-9926-0236a49f5cd1" cx="350.5" cy="69.5" r="14.15"/><circle class="dbd44546-69f9-4ac4-9926-0236a49f5cd1" cx="450.5" cy="69.5" r="17.68"/><circle class="dbd44546-69f9-4ac4-9926-0236a49f5cd1" cx="350.5" cy="169.5" r="29.58"/><circle class="dbd44546-69f9-4ac4-9926-0236a49f5cd1" cx="450.5" cy="169.5" r="17.68"/><circle class="dbd44546-69f9-4ac4-9926-0236a49f5cd1" cx="350.5" cy="269.5" r="35.83"/><circle class="dbd44546-69f9-4ac4-9926-0236a49f5cd1" cx="450.5" cy="269.5" r="31.12"/><circle class="dbd44546-69f9-4ac4-9926-0236a49f5cd1" cx="350.5" cy="369.5" r="9"/><circle class="dbd44546-69f9-4ac4-9926-0236a49f5cd1" cx="450.5" cy="369.5" r="14.67"/><circle class="dbd44546-69f9-4ac4-9926-0236a49f5cd1" cx="350.5" cy="469.5" r="2"/><circle class="dbd44546-69f9-4ac4-9926-0236a49f5cd1" cx="450.5" cy="469.5" r="10"/><circle class="dbd44546-69f9-4ac4-9926-0236a49f5cd1" cx="550.5" cy="69.5" r="12.73"/><circle class="dbd44546-69f9-4ac4-9926-0236a49f5cd1" cx="650.5" cy="69.5" r="6.74"/><circle class="dbd44546-69f9-4ac4-9926-0236a49f5cd1" cx="550.5" cy="169.5" r="18"/><circle class="dbd44546-69f9-4ac4-9926-0236a49f5cd1" cx="650.5" cy="169.5" r="9.73"/><circle class="dbd44546-69f9-4ac4-9926-0236a49f5cd1" cx="550.5" cy="269.5" r="25"/><circle class="dbd44546-69f9-4ac4-9926-0236a49f5cd1" cx="650.5" cy="269.5" r="13.79"/><circle class="dbd44546-69f9-4ac4-9926-0236a49f5cd1" cx="550.5" cy="369.5" r="17.68"/><circle class="dbd44546-69f9-4ac4-9926-0236a49f5cd1" cx="650.5" cy="369.5" r="9"/><circle class="dbd44546-69f9-4ac4-9926-0236a49f5cd1" cx="550.5" cy="469.5" r="8"/><circle class="dbd44546-69f9-4ac4-9926-0236a49f5cd1" cx="650.5" cy="469.5" r="9"/></g></svg>
