<?xml version="1.0" encoding="UTF-8"?>
<svg width="89px" height="89px" viewBox="0 0 89 89" version="1.1" xmlns="http://www.w3.org/2000/svg" xmlns:xlink="http://www.w3.org/1999/xlink">
    <!-- Generator: Sketch 48.2 (47327) - http://www.bohemiancoding.com/sketch -->
    <title>CALENDAR-SELECT</title>
    <desc>Created with Sketch.</desc>
    <defs>
        <rect id="path-1" x="0" y="0" width="55.0209551" height="55.0209551" rx="4"></rect>
        <filter x="-46.3%" y="-44.5%" width="196.3%" height="196.3%" filterUnits="objectBoundingBox" id="filter-2">
            <feOffset dx="1" dy="2" in="SourceAlpha" result="shadowOffsetOuter1"></feOffset>
            <feGaussianBlur stdDeviation="8.5" in="shadowOffsetOuter1" result="shadowBlurOuter1"></feGaussianBlur>
            <feColorMatrix values="0 0 0 0 0   0 0 0 0 0   0 0 0 0 0  0 0 0 0.07 0" type="matrix" in="shadowBlurOuter1"></feColorMatrix>
        </filter>
    </defs>
    <g id="CALENDAR" stroke="none" stroke-width="1" fill="none" fill-rule="evenodd" transform="translate(-953.000000, -175.000000)">
        <g id="side-app---calendar" transform="translate(931.000000, 155.000000)">
            <g id="CALENDAR-SELECT" transform="translate(38.000000, 35.000000)">
                <g id="icon">
                    <g id="base">
                        <use fill="black" fill-opacity="1" filter="url(#filter-2)" xlink:href="#path-1"></use>
                        <use fill="#00EEAA" fill-rule="evenodd" xlink:href="#path-1"></use>
                    </g>
                    <path d="M38.218,39.7289565 L17.7808696,39.7289565 C16.222,39.7289565 15,38.2763478 15,36.4224348 L15,21.4306087 C15,19.5766957 15.7008696,18.2574783 17.2608696,18.2574783 L24.0434783,18.2574783 L24.0434783,17.1270435 C24.0434783,16.5188696 24.4131304,16 25.028087,16 C25.6441739,16 26.1426957,16.494 26.1426957,17.1021739 L26.3043478,18.2574783 L29.6956522,18.2574783 L29.8573043,17.1021739 C29.8573043,16.494 30.3558261,16 30.9707826,16 C31.5868696,16 32.0853913,16.494 32.0853913,17.1021739 L31.9565217,18.2574783 L38.7391304,18.2574783 C40.2991304,18.2574783 41,19.5766957 41,21.4306087 L41,36.4224348 C41,38.2763478 39.778,39.7289565 38.218,39.7289565 L38.218,39.7289565 Z M38.218,20.3284348 L32.0853913,20.3284348 L32.0853913,20.776087 C32.0853913,21.3842609 31.4410435,21.6487826 30.826087,21.6487826 C30.21,21.6487826 29.8573043,21.3842609 29.8573043,20.776087 L29.8573043,20.3284348 L26.1426957,20.3284348 L26.1426957,20.776087 C26.1426957,21.3842609 25.7888696,21.6487826 25.173913,21.6487826 C24.5578261,21.6487826 23.9146087,21.3842609 23.9146087,20.776087 L23.9146087,20.3284348 L17.2608696,20.5183478 C17.0664348,20.5183478 17.228087,20.7466957 17.228087,21.4306087 L17.2608696,23.9096522 L38.7391304,23.9096522 L38.771913,21.4306087 C38.771913,20.7466957 38.4135652,20.3284348 38.218,20.3284348 L38.218,20.3284348 Z M38.771913,36.4224348 L38.7391304,26.1705217 L17.2608696,26.1705217 L17.228087,36.4224348 C17.228087,37.1063478 17.0664348,37.4748696 17.2608696,37.4748696 L38.7391304,37.4748696 C38.9335652,37.4748696 38.771913,37.1063478 38.771913,36.4224348 L38.771913,36.4224348 Z M24.0434783,34.0835652 L20.6521739,34.0835652 L20.6521739,30.6922609 C20.6521739,30.2864348 20.5323478,29.5946087 20.9426957,29.5946087 L24.4097391,29.5946087 C24.820087,29.5946087 25.1524348,29.9224348 25.1524348,30.3293913 L25.1524348,33.7568696 C25.1524348,34.1626957 24.4538261,34.0835652 24.0434783,34.0835652 L24.0434783,34.0835652 Z M20.6521739,34.0835652 C20.2418261,34.0835652 20.6521739,33.7557391 20.6521739,34.0835652 L20.6521739,34.0835652 Z" id="calendar-icon" fill="#FFFFFF"></path>
                </g>
            </g>
        </g>
    </g>
</svg>