<?xml version="1.0" encoding="UTF-8"?>
<svg width="56px" height="56px" viewBox="0 0 56 56" version="1.1" xmlns="http://www.w3.org/2000/svg" xmlns:xlink="http://www.w3.org/1999/xlink">
    <!-- Generator: Sketch 48.2 (47327) - http://www.bohemiancoding.com/sketch -->
    <title>create-pdf-button</title>
    <g id="PLUS-Options" stroke="none" stroke-width="1" fill="none" fill-rule="evenodd" transform="translate(-92.000000, -554.000000)">
        <g id="create-pdf-button" transform="translate(89.000000, 548.000000)">
            <g id="pdf-copy" filter="url(#filter-1)" transform="translate(31.112698, 32.000000) rotate(-45.000000) translate(-31.112698, -32.000000) translate(9.112698, 10.000000)" fill="#5F639E">
                <circle id="Oval" cx="22" cy="22" r="22"></circle>
            </g>
            <g id="Page-1-Copy" transform="translate(22.000000, 19.887302)">
                <g id="Clip-2"></g>
                <path d="M18.5699059,15.3246604 L17.0932,15.3246604 L17.0932,15.7281187 L18.3609647,15.7281187 L18.3609647,16.4979 L17.0932,16.4979 L17.0932,17.7300771 L16.1141412,17.7300771 L16.1141412,14.4959417 L18.5701412,14.4959417 L18.5701412,15.3246604 L18.5699059,15.3246604 Z M12.3240235,15.6011396 C12.3240235,16.3845771 11.8080235,16.7513792 11.0783765,16.7513792 L10.5002588,16.7513792 L10.5002588,17.7298375 L9.52143529,17.7298375 L9.52143529,14.4959417 L11.1586118,14.4959417 C12.0214353,14.4959417 12.3240235,15.1389833 12.3240235,15.6011396 Z M15.6915529,16.1083375 C15.6915529,17.1004521 15.1755529,17.7298375 14.0680235,17.7298375 L12.6532,17.7298375 L12.6532,14.4959417 L14.2590824,14.4959417 C15.3179059,14.4959417 15.6915529,15.293275 15.6915529,16.1083375 Z M16.6454353,19.9658687 C16.6454353,20.8367542 15.9496706,21.5452021 15.0943765,21.5452021 L2.96284706,21.5452021 C2.10755294,21.5452021 1.41178824,20.8367542 1.41178824,19.9658687 L1.41178824,3.01678542 C1.41178824,2.1459 2.10755294,1.43745208 2.96284706,1.43745208 L11.4572,1.43745208 L11.4572,7.34150417 L16.6454353,7.34150417 L16.6454353,12.6935562 L9.26002353,12.6935562 C8.4412,12.6935562 7.7772,13.3694208 7.7772,14.2034104 L7.7772,17.7267229 C7.7772,18.5602333 8.44096471,19.2365771 9.26002353,19.2365771 L16.6454353,19.2365771 L16.6454353,19.9658687 Z M12.8689647,2.60015 L15.7724941,5.90400417 L12.8689647,5.90400417 L12.8689647,2.60015 Z M18.4044941,12.6935562 L18.0569647,12.6935562 L18.0569647,6.34819167 L12.4790824,-4.79166667e-05 L2.96284706,-4.79166667e-05 C1.3292,-4.79166667e-05 2.35294118e-05,1.35311875 2.35294118e-05,3.01678542 L2.35294118e-05,19.9658687 C2.35294118e-05,21.6292958 1.32896471,22.9827021 2.96284706,22.9827021 L15.0943765,22.9827021 C16.7280235,22.9827021 18.0572,21.6295354 18.0572,19.9658687 L18.0572,19.2363375 L18.4044941,19.2363375 C19.2233176,19.2363375 19.8870824,18.5602333 19.8870824,17.7264833 L19.8870824,14.2031708 C19.8870824,13.3694208 19.2235529,12.6935562 18.4044941,12.6935562 Z" id="Fill-1" fill="#FFFFFF" mask="url(#mask-3)"></path>
            </g>
        </g>
    </g>
</svg>
