<?xml version="1.0" encoding="UTF-8"?>
<svg viewBox="0 0 58 58" width="48" height="48" version="1.1" xmlns="http://www.w3.org/2000/svg">
  <title>Print</title>
  <circle cx="29" cy="29" r="29" fill="#5f639e" />
  <path d="M29.36,26.26h-.06A3.19,3.19,0,0,0,26,29.53,3.25,3.25,0,0,0,27,31.85a3.13,3.13,0,0,0,2.32.93,3.2,3.2,0,0,0,3.25-3.27A3.18,3.18,0,0,0,29.36,26.26Z" fill="none" />
  <path d="M41.56,20.07H36.88l-2.45-2.91,0,0h-.1l-11,0c-.1,0-.19.14-.25.23L21,20.12H16.23c-1.49,0-2.07.59-2.07,2.08l0,16.89a1.62,1.62,0,0,0,.56,1.24,2.16,2.16,0,0,0,1.52.53l25.48-.06A2,2,0,0,0,43.83,39l0-16.89C43.7,20.4,43,20.07,41.56,20.07ZM33.73,33.93a6.19,6.19,0,0,1-4.41,1.82H29.2a6.22,6.22,0,0,1,.09-12.44,6.12,6.12,0,0,1,6.24,6.21A6.19,6.19,0,0,1,33.73,33.93Zm6.44-8.59a1.85,1.85,0,1,1,1.88-1.82A1.85,1.85,0,0,1,40.18,25.34Z" fill="none" />
  <path d="M46.75,22.06c-.17-3.2-2-4.93-5.2-4.95H38.24l-1.31-1.53a2.81,2.81,0,0,0-2.64-1.42l-11,0a3,3,0,0,0-2.64,1.46l-1.18,1.51H16.23a4.67,4.67,0,0,0-5,5l0,16.89a4.56,4.56,0,0,0,1.56,3.46,5.22,5.22,0,0,0,3.38,1.27h.1l25.48-.06a5,5,0,0,0,5-4.75Zm-5,18.75-25.48.06a2.16,2.16,0,0,1-1.52-.53,1.62,1.62,0,0,1-.56-1.24l0-16.89c0-1.49.58-2.08,2.07-2.08H21l2.13-2.74c.06-.09.15-.22.25-.23l11,0h.1l0,0,2.45,2.91h4.68c1.4,0,2.13.33,2.23,2.07l0,16.89A2,2,0,0,1,41.77,40.81Z" fill="#fff" />
  <path d="M29.29,23.3a6.22,6.22,0,0,0-.09,12.44h.12a6.16,6.16,0,0,0,6.21-6.24A6.12,6.12,0,0,0,29.29,23.3Zm2.34,8.54a3.25,3.25,0,0,1-2.32.94A3.13,3.13,0,0,1,27,31.85,3.25,3.25,0,0,1,26,29.53a3.19,3.19,0,0,1,3.25-3.27h.06a3.18,3.18,0,0,1,3.2,3.25A3.25,3.25,0,0,1,31.63,31.84Z" fill="#fff" />
  <circle cx="40.2" cy="23.49" r="1.85" transform="translate(16.12 63.33) rotate(-89.14)" fill="#fff" />
</svg>
