<?xml version="1.0" encoding="UTF-8"?>
<svg viewBox="0 0 58 58" width="48" height="48" version="1.1" xmlns="http://www.w3.org/2000/svg">
  <title>PDF</title>
  <circle cx="29" cy="29" r="29" fill="#5f639e" />
  <path fill="#FFFFFF" d="M42.61,30.56h-.52V21l-8.37-9.52H19.44A4.49,4.49,0,0,0,15,16V41.47A4.49,4.49,0,0,0,19.44,46h18.2a4.49,4.49,0,0,0,4.44-4.53V40.37h.52a2.24,2.24,0,0,0,2.22-2.27V32.82A2.24,2.24,0,0,0,42.61,30.56ZM34.3,15.42l4.35,5H34.3Zm5.66,26a2.35,2.35,0,0,1-2.33,2.37H19.44a2.35,2.35,0,0,1-2.33-2.37V16a2.35,2.35,0,0,1,2.33-2.37H32.19v8.86H40v8H28.89a2.24,2.24,0,0,0-2.22,2.26v5.29a2.25,2.25,0,0,0,2.22,2.27H40Zm-1.43-5.79a2.19,2.19,0,0,1-2.44,2.43H34V33.26h2.41C38,33.26,38.54,34.46,38.54,35.68Zm-5.05-.76a1.64,1.64,0,0,1-1.87,1.73h-.87v1.47H29.28V33.26h2.46A1.63,1.63,0,0,1,33.49,34.92Zm9.37-.41H40.64v.6h1.9v1.16h-1.9v1.85H39.17V33.26h3.68Z" />
</svg>
