<?xml version="1.0" encoding="UTF-8"?>
<svg viewBox="0 0 58 58" width="48" height="48" version="1.1" xmlns="http://www.w3.org/2000/svg">
  <title>Help</title>
  <circle cx="29" cy="29" r="29" fill="#00e6a5" />
  <path d="M7.55,21.86H8.81v6.49H16V21.86h1.23V36.14H16V29.46H8.81v6.68H7.55Z" fill="#fff" />
  <path d="M20.94,21.86h7.52l-.15,1.09H22.19v5.41h5v1.11h-5v5.6h6.43v1.09H20.94Z" fill="#fff" />
  <path d="M31.59,21.86h1.25v13.2H39v1.09H31.59Z" fill="#fff" />
  <path d="M41.7,21.86h4a8.39,8.39,0,0,1,2.2.25A3.41,3.41,0,0,1,49.4,23a3.31,3.31,0,0,1,.77,1.31,5.7,5.7,0,0,1,.27,1.83,4.76,4.76,0,0,1-1.06,3.38,4.34,4.34,0,0,1-3.3,1.15H42.95v5.49H41.7Zm3.88,7.68a6.72,6.72,0,0,0,1.76-.18A2.28,2.28,0,0,0,49,27.73a5.83,5.83,0,0,0,.18-1.57,3.53,3.53,0,0,0-.71-2.38,2.13,2.13,0,0,0-1.07-.66,7.35,7.35,0,0,0-1.84-.18H42.95v6.6Z" fill="#fff" />
</svg>
