<?xml version="1.0" encoding="UTF-8"?>
<svg viewBox="0 0 58 58" width="48" height="48" version="1.1" xmlns="http://www.w3.org/2000/svg">
  <title>Share</title>
  <circle cx="29" cy="29" r="29" fill="#5f639e" />
  <path d="M34,14.57a5.16,5.16,0,0,0-5.14,5.14A5.05,5.05,0,0,0,29.06,21l-5.58,4.28a5.14,5.14,0,1,0,0,8.09l5.57,4.28a5.09,5.09,0,0,0-.17,1.29A5.16,5.16,0,1,0,30,35.75l-5.15-4a5.1,5.1,0,0,0,0-4.94l5.16-4A5.14,5.14,0,1,0,34,14.57m0,2.06a3.09,3.09,0,1,1-3.09,3.09A3.07,3.07,0,0,1,34,16.62m-13.72,9.6a3.09,3.09,0,1,1-3.09,3.09,3.07,3.07,0,0,1,3.09-3.09M34,35.82a3.09,3.09,0,1,1-3.09,3.09A3.07,3.07,0,0,1,34,35.82" fill="#FFFFFF" />
</svg>
