<?xml version="1.0" encoding="UTF-8"?>
<svg width="37px" height="29px" viewBox="0 0 37 29" version="1.1" xmlns="http://www.w3.org/2000/svg" xmlns:xlink="http://www.w3.org/1999/xlink">
    <!-- Generator: Sketch 48.2 (47327) - http://www.bohemiancoding.com/sketch -->
    <title>ic-basket-sales-store</title>
    <desc>Created with Sketch.</desc>
    <defs></defs>
    <g id="OVERVIEW:-attraction-power" stroke="none" stroke-width="1" fill="none" fill-rule="evenodd" transform="translate(-949.000000, -265.000000)" stroke-linecap="round" stroke-linejoin="round">
        <g id="ic-basket-sales-store" transform="translate(948.000000, 264.000000)" stroke="#999999">
            <g transform="translate(1.000000, 1.000000)">
                <path d="M31.3904195,14.243775 C31.3904195,14.987525 30.6221268,15.75315 29.6782244,15.75315 L2.37090732,15.75315 C1.42700488,15.75315 0.658712195,15.0094 0.658712195,14.243775 L0.658712195,12.187525 C0.658712195,11.2469 1.42700488,10.50315 2.37090732,10.50315 L16.0245659,10.50315" id="Stroke-1" stroke-width="1.31707317"></path>
                <path d="M15.5855415,10.48145 L25.244078,10.48145" id="Stroke-3" stroke-width="1.31707317"></path>
                <path d="M2.85383415,15.73145 L2.85383415,15.90645 L6.23432195,26.690825 C6.43188293,27.4127 7.17822439,27.98145 8.12212683,27.98145 L23.5090537,27.98145 C24.4538341,27.98145 25.0026146,27.434575 25.3977366,26.690825 L28.7773463,15.90645 L28.7773463,15.73145 L2.85383415,15.73145 Z" id="Stroke-5" stroke-width="1.31707317"></path>
                <path d="M16.0245659,13.10645 L10.7562732,4.79395" id="Stroke-7" stroke-width="1.31707317"></path>
                <path d="M10.7125463,4.247075 C9.78971707,4.79395 8.51742439,4.61895 7.79303415,3.7002 C7.24425366,2.978325 7.41986341,1.6877 8.34181463,0.965825 C9.26376585,0.41895 10.3613268,0.59395 11.0857171,1.5127 C11.6344976,2.25645 11.4588878,3.5252 10.7125463,4.247075 Z" id="Stroke-9" stroke-width="1.31707317"></path>
                <path d="M7.20465366,19.85645 L24.4047512,19.85645" id="Stroke-13" stroke-width="1.28721951"></path>
                <path d="M8.46342439,23.91895 L23.1470341,23.91895" id="Stroke-15" stroke-width="1.28721951"></path>
                <path d="M16.5073171,13.6315375 C16.1121951,13.9815375 15.5414634,13.8065375 15.3439024,13.6315375 C15.1463415,13.2815375 15.1463415,12.7565375 15.5414634,12.5815375 C15.9365854,12.2315375 16.5073171,12.4065375 16.704878,12.7565375 C16.902439,12.9315375 16.902439,13.4565375 16.5073171,13.6315375 Z" id="Stroke-17" stroke-width="1.31707317"></path>
                <path d="M30.5123707,3.04395 C33.4213463,3.04395 35.7806634,5.3942 35.7806634,8.29395 C35.7806634,11.192825 33.4213463,13.54395 30.5123707,13.54395 C27.6033951,13.54395 25.244078,11.192825 25.244078,8.29395 C25.244078,5.3942 27.6033951,3.04395 30.5123707,3.04395 Z" id="Stroke-19" stroke-width="1.31707317"></path>
                <path d="M27.8782244,8.73145 L30.0733463,10.48145" id="Stroke-21" stroke-width="1.31707317"></path>
                <path d="M30.0733463,10.48145 L33.1465171,6.98145" id="Stroke-23" stroke-width="1.31707317"></path>
            </g>
        </g>
    </g>
</svg>