<?xml version="1.0" encoding="UTF-8"?>
<svg width="22px" height="25px" viewBox="0 0 22 25" version="1.1" xmlns="http://www.w3.org/2000/svg" xmlns:xlink="http://www.w3.org/1999/xlink">
    <!-- Generator: Sketch 48.2 (47327) - http://www.bohemiancoding.com/sketch -->
    <title>Group</title>
    <desc>Created with Sketch.</desc>
    <defs></defs>
    <g id="Bag" stroke="none" stroke-width="1" fill="none" fill-rule="evenodd" transform="translate(-5.000000, -4.000000)">
        <g id="Group" transform="translate(6.000000, 5.000000)" stroke="#979797" stroke-width="1.5">
            <path d="M1.58261095,5.90780179 L0.202258928,20.8156036 C0.100419597,21.9154684 0.909479077,22.889642 2.00934385,22.9914813 C2.07064546,22.9971574 2.13217645,23 2.19374028,23 L17.8062597,23 C18.9108292,23 19.8062597,22.1045695 19.8062597,21 C19.8062597,20.9384362 19.8034171,20.8769052 19.7977411,20.8156036 L18.4173891,5.90780179 C18.3697629,5.39343891 17.9382115,5 17.4216484,5 L2.57835162,5 C2.06178853,5 1.63023714,5.39343891 1.58261095,5.90780179 Z" id="Path-3-Copy"></path>
            <path d="M6,8.3115443 L6,4.15577215 L6,4 C6,1.790861 7.790861,9.67725838e-13 10,0 L10,0 C12.209139,-4.05812251e-16 14,1.790861 14,4 L14,4.15577215 L14,8.3115443" id="Path-4-Copy" stroke-linecap="round"></path>
        </g>
    </g>
</svg>