<?xml version="1.0" encoding="UTF-8"?>
<svg width="80px" height="80px" viewBox="0 0 80 80" version="1.1" xmlns="http://www.w3.org/2000/svg" xmlns:xlink="http://www.w3.org/1999/xlink">
    <!-- Generator: Sketch 48.2 (47327) - http://www.bohemiancoding.com/sketch -->
    <title>Ic-Bag</title>
    <desc>Created with Sketch.</desc>
    <defs></defs>
    <g id="Symbols" stroke="none" stroke-width="1" fill="none" fill-rule="evenodd">
        <g id="Ic-Bag">
            <circle id="Oval-8" fill="#CCCCCC" cx="40" cy="40" r="40"></circle>
            <g id="Group-Copy" transform="translate(19.000000, 15.000000)" stroke="#FFFFFF" stroke-width="3">
                <path d="M3.36521964,11.2556279 L0.202258928,45.4156036 C0.100419597,46.5154684 0.909479077,47.489642 2.00934385,47.5914813 C2.07064546,47.5971574 2.13217645,47.6 2.19374028,47.6 L39.1975641,47.6 C40.3021336,47.6 41.1975641,46.7045695 41.1975641,45.6 C41.1975641,45.5384362 41.1947215,45.4769052 41.1890454,45.4156036 L38.0260847,11.2556279 C37.9784585,10.741265 37.5469071,10.3478261 37.030344,10.3478261 L4.36096032,10.3478261 C3.84439722,10.3478261 3.41284583,10.741265 3.36521964,11.2556279 Z" id="Path-3-Copy"></path>
                <path d="M12.4173913,17.201283 L12.4173913,8.6006415 L12.4173913,8.27826087 C12.4173913,3.70630364 16.1236949,1.99871102e-12 20.6956522,0 L20.6956522,0 C25.2676094,-8.39854919e-16 28.973913,3.70630364 28.973913,8.27826087 L28.973913,8.6006415 L28.973913,17.201283" id="Path-4-Copy" stroke-linecap="round"></path>
            </g>
        </g>
    </g>
</svg>