<?xml version="1.0" encoding="UTF-8"?>
<svg width="80px" height="80px" viewBox="0 0 80 80" version="1.1" xmlns="http://www.w3.org/2000/svg" xmlns:xlink="http://www.w3.org/1999/xlink">
    <!-- Generator: Sketch 48.2 (47327) - http://www.bohemiancoding.com/sketch -->
    <title>Ic-Funnel-attraction</title>
    <desc>Created with Sketch.</desc>
    <defs></defs>
    <g id="Icons-FUNNEL-ATTRACTION" stroke="none" stroke-width="1" fill="none" fill-rule="evenodd" transform="translate(-31.000000, -193.000000)">
        <g id="Ic-Funnel-attraction" transform="translate(31.000000, 193.000000)">
            <circle id="Oval-8" fill="#CCCCCC" cx="40" cy="40" r="40"></circle>
            <g id="ic-funnel-attraction-store" stroke-width="1" transform="translate(14.000000, 21.000000)" stroke="#FFFFFF">
                <path d="M50.7107438,6.01652893 C50.7107438,9.41157025 48.1752066,12.0330579 44.9090909,12.0330579 C6.14545455,12.0330579 6.14545455,12.0330579 6.14545455,12.0330579 C2.53553719,12.0330579 0,9.41157025 0,6.01652893 C0,2.6214876 2.53553719,0 6.14545455,0 C44.9090909,0 44.9090909,0 44.9090909,0 C48.1752066,0 50.7107438,2.66446281 50.7107438,6.01652893 Z" id="Shape" stroke-width="3" stroke-linecap="round" stroke-linejoin="round"></path>
                <path d="M19.1091428,25.1834711 C19.1091428,48.1322314 19.1091428,48.1322314 19.1091428,48.1322314 C32.5603825,42.5884298 32.5603825,42.5884298 32.5603825,42.5884298 C32.5603825,25.1834711 32.5603825,25.1834711 32.5603825,25.1834711 C49.6645147,10.7438017 49.6645147,10.7438017 49.6645147,10.7438017 C51.4694734,8.89586777 51.8562502,6.31735537 50.7388949,3.69586777 C50.0512916,1.50413223 47.4727792,0 44.937242,0 C6.34550643,0 6.34550643,0 6.34550643,0 C3.80996924,0 1.6182337,1.46115702 0.500878327,3.69586777 C-0.573501838,6.27438017 0.157076674,8.89586777 1.96203535,10.7438017 L19.1091428,25.1834711 Z" id="Shape" stroke-width="3" stroke-linecap="round" stroke-linejoin="round"></path>
                <path d="M4,3 L13.5,11.5" id="Shape" stroke-width="3" stroke-linecap="round" stroke-linejoin="round"></path>
                <path d="M46.4545455,3 L37.5,11.5" id="Shape" stroke-width="3" stroke-linecap="square"></path>
            </g>
        </g>
    </g>
</svg>