<?xml version="1.0" encoding="UTF-8"?>
<svg width="32px" height="20px" viewBox="0 0 32 20" version="1.1" xmlns="http://www.w3.org/2000/svg" xmlns:xlink="http://www.w3.org/1999/xlink">
    <!-- Generator: Sketch 48.2 (47327) - http://www.bohemiancoding.com/sketch -->
    <title>Shape</title>
    <desc>Created with Sketch.</desc>
    <defs></defs>
    <g id="Full-perspective" stroke="none" stroke-width="1" fill="none" fill-rule="evenodd" transform="translate(0.000000, -5.000000)">
        <path d="M10.7091151,10.2908849 C10.7091151,12.0677386 11.5936928,13.6453351 12.9447776,14.6057634 C12.1450721,14.8632532 11.3890756,15.2188879 10.6908242,15.658595 C10.1036633,14.9264892 9.34737582,14.3350737 8.48254341,13.9423446 C9.35668487,13.2238752 9.91639141,12.1359311 9.91639141,10.9236093 C9.91639141,8.77093188 8.15636308,7.01089991 6.003682,7.01089991 C3.8538009,7.01089991 2.09460893,8.77093188 2.09460893,10.9236093 C2.09460893,12.1361929 2.65435183,13.2243334 3.52812966,13.9427992 C1.45086642,14.8882349 7.30410073e-05,16.9841889 7.30410073e-05,19.4108324 C-0.00363624355,19.6731119 0.134163553,19.9170711 0.360706194,20.0492933 C0.587248836,20.1815155 0.867436061,20.1815155 1.0939787,20.0492933 C1.32052134,19.9170711 1.45832114,19.6731119 1.45461186,19.4108324 C1.45461186,16.8874621 3.48380259,14.8617623 6.003682,14.8617623 C7.42283916,14.8617623 8.68490612,15.5091411 9.51784777,16.5217547 C7.36909395,18.357019 6.003682,21.0844248 6.003682,24.1235382 C5.99997271,24.3858176 6.13777251,24.6297768 6.36431515,24.761999 C6.59085779,24.8942212 6.87104502,24.8942212 7.09758766,24.761999 C7.3241303,24.6297768 7.4619301,24.3858176 7.45822081,24.1235382 C7.45822081,21.3243509 8.79988741,18.8427259 10.8760234,17.2854966 C10.9175331,17.2610564 10.9565122,17.2325529 10.9923865,17.2004061 C12.3987801,16.1821199 14.1281904,15.581759 16,15.581759 C17.8620642,15.581759 19.5824564,16.1747017 20.98405,17.1817517 C21.0328923,17.22966 21.0882497,17.2704374 21.1484856,17.3028784 C23.2112762,18.8610895 24.5417792,21.3344963 24.5417792,24.1235382 C24.5380699,24.3858176 24.6758697,24.6297768 24.9024123,24.761999 C25.128955,24.8942212 25.4091422,24.8942212 25.6356848,24.761999 C25.8622275,24.6297768 26.0000273,24.3858176 25.996318,24.1235382 C25.996318,21.0847157 24.632106,18.357419 22.4838249,16.5221183 C23.316803,15.5081593 24.5778154,14.8617623 25.996318,14.8617623 C28.5203065,14.8617623 30.5453881,16.8868439 30.5453881,19.4108324 C30.5416789,19.6731119 30.6794787,19.9170711 30.9060213,20.0492933 C31.1325639,20.1815155 31.4127512,20.1815155 31.6392938,20.0492933 C31.8658364,19.9170711 32.0036362,19.6731119 31.999927,19.4108324 C31.999927,16.9873889 30.5540427,14.8933257 28.4802703,13.9462101 C29.35143,13.228177 29.9090274,12.1422838 29.9090274,10.930882 C29.9090274,8.78102638 28.1489991,7.02180895 25.996318,7.02180895 C23.8464369,7.02180895 22.0872449,8.78102638 22.0872449,10.930882 C22.0872449,12.1414438 22.6439697,13.2266897 23.5133839,13.9447301 C22.651206,14.3373646 21.8969185,14.9277256 21.3109939,15.6588132 C20.6123789,15.2188515 19.8558733,14.8629986 19.0555497,14.6053998 C20.4064162,13.6449678 21.2908849,12.0675677 21.2908849,10.2908849 C21.2908849,7.37770187 18.9131867,5 16,5 C13.0868133,5 10.7091151,7.37770187 10.7091151,10.2908849 Z M16,6.45453881 C18.1267903,6.45453881 19.8363461,8.16409101 19.8363461,10.2908849 C19.8363461,12.4176789 18.1267903,14.1272202 16,14.1272202 C13.8732097,14.1272202 12.1636539,12.4176789 12.1636539,10.2908849 C12.1636539,8.16409101 13.8732097,6.45453881 16,6.45453881 Z M6.003682,8.46543873 C7.37098485,8.46543873 8.46185259,9.55630284 8.46185259,10.9236093 C8.46185259,12.2864649 7.37098485,13.3781436 6.003682,13.3781436 C4.64081549,13.3781436 3.54914775,12.2864649 3.54914775,10.9236093 C3.54914775,9.55630284 4.64081549,8.46543873 6.003682,8.46543873 Z M25.996318,8.47634777 C27.3636209,8.47634777 28.4544886,9.56802642 28.4544886,10.930882 C28.4544886,12.2981885 27.3646027,13.3854163 25.996318,13.3854163 C24.6324333,13.3854163 23.5417838,12.2981885 23.5417838,10.930882 C23.5417838,9.56802642 24.6334515,8.47634777 25.996318,8.47634777 Z" id="Shape" fill="#999999"></path>
    </g>
</svg>