<?xml version="1.0" encoding="UTF-8"?>
<svg width="80px" height="80px" viewBox="0 0 80 80" version="1.1" xmlns="http://www.w3.org/2000/svg" xmlns:xlink="http://www.w3.org/1999/xlink">
    <!-- Generator: Sketch 48.2 (47327) - http://www.bohemiancoding.com/sketch -->
    <title>Ic-Full perspective</title>
    <desc>Created with Sketch.</desc>
    <defs></defs>
    <g id="Symbols" stroke="none" stroke-width="1" fill="none" fill-rule="evenodd">
        <g id="Ic-Full-perspective">
            <circle id="Oval-8" fill="#CCCCCC" cx="40" cy="40" r="40"></circle>
            <path d="M31.0716317,32.9283683 C31.0716317,35.926809 32.5643567,38.5890029 34.8443122,40.2097258 C33.4948092,40.6442397 32.2190651,41.2443733 31.0407659,41.986379 C30.0499318,40.7509506 28.7736967,39.752937 27.314292,39.0902066 C28.7894057,37.8777894 29.7339105,36.0418837 29.7339105,33.9960907 C29.7339105,30.3634475 26.7638627,27.3933936 23.1312134,27.3933936 C19.503289,27.3933936 16.5346526,30.3634475 16.5346526,33.9960907 C16.5346526,36.0423255 17.4792187,37.8785626 18.9537188,39.0909736 C15.4483371,40.6863963 13.0001233,44.2233188 13.0001233,48.3182797 C12.9938638,48.7608763 13.226401,49.1725574 13.6086917,49.3956824 C13.9909824,49.6188074 14.4637984,49.6188074 14.8460891,49.3956824 C15.2283798,49.1725574 15.4609169,48.7608763 15.4546575,48.3182797 C15.4546575,44.0600923 18.8789169,40.6417238 23.1312134,40.6417238 C25.5260411,40.6417238 27.6557791,41.7341756 29.0613681,43.442961 C25.435346,46.5399696 23.1312134,51.1424668 23.1312134,56.2709706 C23.124954,56.7135672 23.3574911,57.1252484 23.7397818,57.3483734 C24.1220725,57.5714983 24.5948885,57.5714983 24.9771792,57.3483734 C25.3594699,57.1252484 25.592007,56.7135672 25.5857476,56.2709706 C25.5857476,51.5473422 27.84981,47.3596 31.3532895,44.7317756 C31.4233371,44.6905326 31.4891143,44.642433 31.5496522,44.5881853 C33.9229414,42.8698273 36.8413212,41.8567183 40,41.8567183 C43.1422334,41.8567183 46.0453951,42.8573091 48.4105843,44.5567059 C48.4930057,44.6375512 48.5864214,44.7063632 48.6880694,44.7611073 C52.1690285,47.3905884 54.4142524,51.5644626 54.4142524,56.2709706 C54.407993,56.7135672 54.6405301,57.1252484 55.0228208,57.3483734 C55.4051115,57.5714983 55.8779275,57.5714983 56.2602182,57.3483734 C56.6425089,57.1252484 56.875046,56.7135672 56.8687866,56.2709706 C56.8687866,51.1429577 54.566679,46.5406446 50.9414546,43.4435746 C52.347105,41.7325188 54.4750635,40.6417238 56.8687866,40.6417238 C61.1280172,40.6417238 64.5453425,44.0590491 64.5453425,48.3182797 C64.5390831,48.7608763 64.7716202,49.1725574 65.1539109,49.3956824 C65.5362016,49.6188074 66.0090176,49.6188074 66.3913083,49.3956824 C66.773599,49.1725574 67.0061362,48.7608763 66.9998767,48.3182797 C66.9998767,44.2287188 64.559947,40.6949872 61.0604561,39.0967295 C62.5305381,37.8850487 63.4714838,36.0526038 63.4714838,34.0083634 C63.4714838,30.380482 60.501436,27.4118026 56.8687866,27.4118026 C53.2408623,27.4118026 50.2722258,30.380482 50.2722258,34.0083634 C50.2722258,36.0511863 51.2116988,37.8825389 52.6788353,39.094232 C51.2239101,39.7568028 49.95105,40.7530369 48.9623023,41.9867472 C47.7833895,41.244312 46.5067862,40.6438102 45.1562401,40.2091121 C47.4358274,38.5883832 48.9283683,35.9265206 48.9283683,32.9283683 C48.9283683,28.0123719 44.9160026,24 40,24 C35.0839974,24 31.0716317,28.0123719 31.0716317,32.9283683 Z M40,26.4545342 C43.5889586,26.4545342 46.4738341,29.3394036 46.4738341,32.9283683 C46.4738341,36.5173331 43.5889586,39.402184 40,39.402184 C36.4110414,39.402184 33.5261659,36.5173331 33.5261659,32.9283683 C33.5261659,29.3394036 36.4110414,26.4545342 40,26.4545342 Z M23.1312134,29.8479278 C25.4385369,29.8479278 27.2793763,31.688761 27.2793763,33.9960907 C27.2793763,36.2959095 25.4385369,38.1381173 23.1312134,38.1381173 C20.8313761,38.1381173 18.9891868,36.2959095 18.9891868,33.9960907 C18.9891868,31.688761 20.8313761,29.8479278 23.1312134,29.8479278 Z M56.8687866,29.8663369 C59.1761102,29.8663369 61.0169495,31.7085446 61.0169495,34.0083634 C61.0169495,36.3156931 59.177767,38.1503899 56.8687866,38.1503899 C54.5672312,38.1503899 52.7267601,36.3156931 52.7267601,34.0083634 C52.7267601,31.7085446 54.5689494,29.8663369 56.8687866,29.8663369 Z" id="Shape-Copy" fill="#FFFFFF"></path>
        </g>
    </g>
</svg>