<?xml version="1.0" encoding="UTF-8"?>
<svg width="23px" height="24px" viewBox="0 0 23 24" version="1.1" xmlns="http://www.w3.org/2000/svg" xmlns:xlink="http://www.w3.org/1999/xlink">
    <!-- Generator: Sketch 48.2 (47327) - http://www.bohemiancoding.com/sketch -->
    <title>Group</title>
    <desc>Created with Sketch.</desc>
    <defs></defs>
    <g id="Funnel" stroke="none" stroke-width="1" fill="none" fill-rule="evenodd" transform="translate(-5.000000, -5.000000)" stroke-linecap="round" stroke-linejoin="round">
        <g id="Group" transform="translate(6.000000, 6.000000)" stroke="#999999" stroke-width="1.5">
            <path d="M20.9831123,2.67518391 C20.9831123,4.18475197 19.9339567,5.35036782 18.582502,5.35036782 C2.54286869,5.35036782 2.54286869,5.35036782 2.54286869,5.35036782 C1.04915561,5.35036782 0,4.18475197 0,2.67518391 C0,1.16561585 1.04915561,0 2.54286869,0 C18.582502,0 18.582502,0 18.582502,0 C19.9339567,0 20.9831123,1.1847243 20.9831123,2.67518391 Z" id="Shape"></path>
            <path d="M7.80613812,11.1975555 C7.80613812,21.4014713 7.80613812,21.4014713 7.80613812,21.4014713 C13.301007,18.9364804 13.301007,18.9364804 13.301007,18.9364804 C13.301007,11.1975555 13.301007,11.1975555 13.301007,11.1975555 C20.2880927,4.77711412 20.2880927,4.77711412 20.2880927,4.77711412 C21.0254234,3.95545049 21.1834228,2.8089431 20.72698,1.64332726 C20.4460922,0.668795977 19.3927627,0 18.3569887,0 C2.59215707,0 2.59215707,0 2.59215707,0 C1.55638306,0 0.661052979,0.64968752 0.204610193,1.64332726 C-0.2342771,2.78983465 0.0641662594,3.95545049 0.801496913,4.77711412 L7.80613812,11.1975555 Z" id="Shape"></path>
            <path d="M2.85833333,0.357291667 L7.75833333,4.9" id="Shape"></path>
            <path d="M13.475,0.357291667 L18.375,4.9" id="Shape-Copy" transform="translate(15.925000, 2.628646) scale(-1, 1) translate(-15.925000, -2.628646) "></path>
        </g>
    </g>
</svg>