<svg xmlns="http://www.w3.org/2000/svg" viewBox="0 0 20 24" height="48" width="40">
  <title>ic_home</title>
  <g id="b3a904c6-0994-4f29-8a58-974263114b47" data-name="Layer 2">
    <path d="M19,23.75H13.15A.75.75,0,0,1,12.4,23V16.42H7.6V23a.75.75,0,0,1-.75.75H1A.75.75,0,0,1,.25,23V9.38a.75.75,0,0,1,.24-.55l9-8.38a.75.75,0,0,1,1,0l9,8.38a.75.75,0,0,1,.24.55V23A.75.75,0,0,1,19,23.75Zm-5.1-1.5h4.35V9.71L10,2,1.75,9.71V22.25H6.1V15.67a.75.75,0,0,1,.75-.75h6.3a.75.75,0,0,1,.75.75Z" fill="#999" />
  </g>
</svg>
