<?xml version="1.0" encoding="UTF-8"?>
<svg width="24px" height="24px" viewBox="0 0 24 24" version="1.1" xmlns="http://www.w3.org/2000/svg" xmlns:xlink="http://www.w3.org/1999/xlink">
    <!-- Generator: Sketch 48.2 (47327) - http://www.bohemiancoding.com/sketch -->
    <title>log-out</title>
    <desc>Created with Sketch.</desc>
    <defs></defs>
    <g id="LANDING-PAGE-STORE-Copy" stroke="none" stroke-width="1" fill="none" fill-rule="evenodd" transform="translate(-23.000000, -641.000000)">
        <g id="log-out" transform="translate(23.000000, 641.000000)" fill="#9B9B9B">
            <path d="M23.3333333,12.9333333 C23.5989333,12.6784 23.7322667,12.3672 23.7333333,12 C23.7322667,11.6328 23.5989333,11.3170667 23.3333333,11.0533333 L18,5.72 C17.7450667,5.4632 17.4338667,5.3344 17.0666667,5.33333333 C16.6994667,5.3344 16.3837333,5.4632 16.12,5.72 C15.8632,5.98373333 15.7344,6.29946667 15.7333333,6.66666667 C15.7344,7.03386667 15.8632,7.34506667 16.12,7.6 L19.1866667,10.6666667 L6.4,10.6666667 C6.0328,10.6677333 5.71706667,10.7965333 5.45333333,11.0533333 C5.19653333,11.3170667 5.06746667,11.6328 5.06666667,12 C5.06746667,12.3672 5.19653333,12.6784 5.45333333,12.9333333 C5.71706667,13.1992 6.0328,13.3325333 6.4,13.3333333 L19.1866667,13.3333333 L16.12,16.3866667 C15.8632,16.6504 15.7344,16.9661333 15.7333333,17.3333333 C15.7344,17.7008 15.8632,18.0117333 16.12,18.2666667 C16.3837333,18.5325333 16.6994667,18.6658667 17.0666667,18.6666667 C17.4338667,18.6658667 17.7450667,18.5325333 18,18.2666667 L23.3333333,12.9333333 Z M4.93333333,0.386666667 C4.6784,0.129866667 4.3672,0.00106666667 4,0 L1.33333333,0 C0.966133333,0.00106666667 0.6504,0.129866667 0.386666667,0.386666667 C0.129866667,0.6504 0.0008,0.966133333 0,1.33333333 L0,22.6666667 C0.0008,23.0341333 0.129866667,23.3450667 0.386666667,23.6 C0.6504,23.8658667 0.966133333,23.9992 1.33333333,24 L4,24 C4.3672,23.9992 4.6784,23.8658667 4.93333333,23.6 C5.1992,23.3450667 5.33253333,23.0341333 5.33333333,22.6666667 C5.33253333,22.2994667 5.1992,21.9837333 4.93333333,21.72 C4.6784,21.4632 4.3672,21.3344 4,21.3333333 L2.66666667,21.3333333 L2.66666667,2.66666667 L4,2.66666667 C4.3672,2.66586667 4.6784,2.53253333 4.93333333,2.26666667 C5.1992,2.01173333 5.33253333,1.70053333 5.33333333,1.33333333 C5.33253333,0.966133333 5.1992,0.6504 4.93333333,0.386666667 Z" id="Fill-1" transform="translate(11.866667, 12.000000) scale(-1, 1) translate(-11.866667, -12.000000) "></path>
        </g>
    </g>
</svg>