<?xml version="1.0" encoding="UTF-8"?>
<svg width="29px" height="20px" viewBox="0 0 29 20" version="1.1" xmlns="http://www.w3.org/2000/svg" xmlns:xlink="http://www.w3.org/1999/xlink">
    <!-- Generator: Sketch 48.2 (47327) - http://www.bohemiancoding.com/sketch -->
    <title>IC-LUCA-TRANSIT</title>
    <desc>Created with Sketch.</desc>
    <defs></defs>
    <g id="Icons-FUNNEL-ATTRACTION" stroke="none" stroke-width="1" fill="none" fill-rule="evenodd" transform="translate(-50.000000, -499.000000)">
        <g id="IC-LUCA-TRANSIT" transform="translate(50.000000, 499.000000)" fill="#9B9B9B">
            <path d="M3.44733767,16.48721 C1.55130662,14.5551374 0,12.9478398 0,12.9153527 C0,12.8640023 0.682343041,12.1555757 1.45061007,11.4093269 L1.69117853,11.1755347 L3.70716657,13.2295527 L5.72324809,15.2834754 L5.72324809,7.64169009 L5.72324809,0 L6.95236314,0 L8.18157169,0 L8.18157169,7.66131568 L8.18157169,15.3226314 L10.2146697,13.2512742 L12.2477678,11.1799171 L12.701697,11.6145382 C12.9514282,11.8536655 13.3457061,12.2443672 13.5778598,12.4828276 L14,12.916496 L10.5243327,16.458248 C8.22785284,18.7982661 7.02248609,20 6.97162358,20 C6.92076107,20 5.72474405,18.8078883 3.44733767,16.48721 Z M20.7231546,12.3582146 L20.7231546,4.71642929 L18.7071666,6.77044729 L16.691085,8.8244653 L16.4505166,8.59067308 C15.6815951,7.84366217 15,7.13590244 15,7.08445672 C15,6.99175916 21.8804637,0 21.9717171,0 C22.0222991,0 23.2326212,1.20659267 25.5242392,3.54175201 L29,7.08350403 L28.5777664,7.51707712 C28.3456126,7.75563283 27.9513347,8.14633449 27.701697,8.38546182 L27.2476743,8.82008288 L25.2145762,6.74872577 L23.1814782,4.67736865 L23.1814782,12.3386843 L23.1814782,20 L21.9523631,20 L20.7231546,20 L20.7231546,12.3582146 Z" id="Fill-1"></path>
        </g>
    </g>
</svg>