<?xml version="1.0" encoding="UTF-8"?>
<svg width="24px" height="24px" viewBox="0 0 24 24" version="1.1" xmlns="http://www.w3.org/2000/svg" xmlns:xlink="http://www.w3.org/1999/xlink">
    <!-- Generator: Sketch 48.2 (47327) - http://www.bohemiancoding.com/sketch -->
    <title>IC-LUCA-AUDIENCE</title>
    <desc>Created with Sketch.</desc>
    <defs></defs>
    <g id="Icons-FUNNEL-ATTRACTION" stroke="none" stroke-width="1" fill="none" fill-rule="evenodd" transform="translate(-52.000000, -572.000000)">
        <g id="IC-LUCA-AUDIENCE" transform="translate(52.000000, 572.000000)" fill="#9B9B9B">
            <path d="M10.250437,2.16721077 C14.7127454,2.15267386 18.3418631,5.76358681 18.3563796,10.2321773 C18.363227,12.3131493 17.5692034,14.3164997 16.1391941,15.8264181 L16.1391941,15.579565 C16.1405636,13.6488991 15.0759311,11.8759449 13.3725738,10.9716396 C14.6385197,9.25244458 14.272595,6.83108952 12.555543,5.56391004 C10.838491,4.29673056 8.42081391,4.66317034 7.15541588,6.38236535 C6.15104043,7.74691468 6.15104043,9.60709027 7.15541588,10.9716396 C5.44137673,11.8685394 4.36551452,13.6431392 4.36167998,15.579565 L4.36167998,15.8264181 C1.29103554,12.5841392 1.42634001,7.46275928 4.6640608,4.38751767 C6.1718565,2.95576943 8.17239053,2.16062802 10.250437,2.16721077 Z M10.250437,10.3682208 C9.32768249,10.3682208 8.5796734,9.61915864 8.5796734,8.69510504 C8.5796734,7.77105143 9.32768249,7.02198928 10.250437,7.02198928 C11.1731916,7.02198928 11.9212007,7.77105143 11.9212007,8.69510504 C11.9212007,9.61915864 11.1731916,10.3682208 10.250437,10.3682208 Z M6.55284539,17.4721057 L6.55284539,15.579565 C6.55284539,13.9133062 7.9017816,12.562471 9.56569783,12.562471 L10.9625658,12.562471 C12.6158001,12.5775564 13.9480287,13.9240032 13.9480287,15.579565 L13.9480287,17.4721057 C11.6275845,18.6679721 8.87328956,18.6679721 6.55284539,17.4721057 Z M10.250437,20.5714841 C12.6021053,20.5780669 14.884478,19.7741484 16.714375,18.2949495 L22.4387946,24 L24,22.4365968 L18.2755804,16.7315463 C21.8301984,12.3046466 21.1284777,5.83023715 16.7078015,2.27061481 C12.2873992,-1.28928182 5.82209172,-0.586573197 2.26719974,3.84032653 C-1.28741836,8.26722625 -0.585697633,14.7416357 3.83497859,18.301258 C5.66104107,19.7719542 7.93437518,20.5728555 10.2778266,20.5714841 L10.250437,20.5714841 Z" id="Fill-1"></path>
        </g>
    </g>
</svg>