<?xml version="1.0" encoding="UTF-8"?>
<svg width="27px" height="23px" viewBox="0 0 27 23" version="1.1" xmlns="http://www.w3.org/2000/svg" xmlns:xlink="http://www.w3.org/1999/xlink">
    <!-- Generator: Sketch 48.2 (47327) - http://www.bohemiancoding.com/sketch -->
    <title>IC-LUCA-TOURISM</title>
    <desc>Created with Sketch.</desc>
    <defs></defs>
    <g id="Icons-FUNNEL-ATTRACTION" stroke="none" stroke-width="1" fill="none" fill-rule="evenodd" transform="translate(-49.000000, -649.000000)">
        <g id="IC-LUCA-TOURISM" transform="translate(49.000000, 649.000000)" fill="#9B9B9B">
            <g id="Group">
                <polygon id="Fill-1" points="0 5.52780517 3.25769978 7.0038454 3.25769978 19 27 19 27 17.323309 4.92428175 17.323309 4.92428175 5.9202327 0.684567778 4"></polygon>
                <path d="M7.31550272,21.000743 C7.31550272,21.1751084 7.17384844,21.3162848 7,21.3162848 C6.82615156,21.3162848 6.68449728,21.1751084 6.68449728,21.000743 C6.68449728,20.8258824 6.82615156,20.6837152 7,20.6837152 C7.17384844,20.6837152 7.31550272,20.8258824 7.31550272,21.000743 M5,21.000743 C5,22.1029102 5.897474,23 7,23 C8.102526,23 9,22.1024149 9,21.000743 C9,19.8970898 8.102526,19 7,19 C5.897474,19 5,19.8970898 5,21.000743" id="Fill-2"></path>
                <path d="M24.3158677,21.000743 C24.3158677,21.1751084 24.1746563,21.3162848 24.0002477,21.3162848 C23.8258392,21.3162848 23.6846278,21.1751084 23.6846278,21.000743 C23.6846278,20.8258824 23.8258392,20.6837152 24.0002477,20.6837152 C24.1746563,20.6837152 24.3158677,20.8258824 24.3158677,21.000743 M22,21.000743 C22,22.1029102 22.897312,23 24.0002477,23 C25.1031835,23 26,22.1024149 26,21.000743 C26,19.8970898 25.1031835,19 24.0002477,19 C22.897312,19 22,19.8970898 22,21.000743" id="Fill-4"></path>
                <path d="M25.3291961,12.8140325 C25.3291961,13.6441233 24.657237,14.3195602 23.8314204,14.3195602 L22.8502716,14.3195602 L22.8502716,4.07189179 L25.3291961,4.07189179 L25.3291961,12.8140325 Z M8.67178706,14.3195602 L11.1516946,14.3195602 L11.1516946,4.07189179 L8.67178706,4.07189179 L8.67178706,14.3195602 Z M12.8229901,14.3195602 L21.1789761,14.3195602 L21.1789761,4.07189179 L12.8229901,4.07189179 L12.8229901,14.3195602 Z M15.3510704,2.39145204 L18.6499127,2.39145204 L18.6499127,1.68043975 L15.3510704,1.68043975 L15.3510704,2.39145204 Z M13.6797749,0 L13.6797749,2.39145204 L7,2.39145204 L7,16 L23.8314204,16 C25.5789073,16 27,14.5705639 27,12.8145266 L27,2.39145204 L20.3212082,2.39145204 L20.3212082,0 L13.6797749,0 Z" id="Fill-6"></path>
            </g>
        </g>
    </g>
</svg>