<?xml version="1.0" encoding="UTF-8"?>
<svg width="26px" height="32px" viewBox="0 0 26 32" version="1.1" xmlns="http://www.w3.org/2000/svg" xmlns:xlink="http://www.w3.org/1999/xlink">
    <!-- Generator: Sketch 48.2 (47327) - http://www.bohemiancoding.com/sketch -->
    <title>IC-LUCA-STORE</title>
    <desc>Created with Sketch.</desc>
    <defs></defs>
    <g id="Icons-FUNNEL-ATTRACTION" stroke="none" stroke-width="1" fill="none" fill-rule="evenodd" transform="translate(-51.000000, -414.000000)">
        <g id="IC-LUCA-STORE" transform="translate(51.000000, 414.000000)" fill="#9B9B9B">
            <path d="M3.42157138,7.84929553 L6.62789361,7.84929553 L6.62789361,10.6379536 C6.62789361,11.0752154 6.99162336,11.4329041 7.43611128,11.4329041 C7.88075818,11.4329041 8.24448792,11.0752154 8.24448792,10.6379536 L8.24448792,7.84929553 L17.7553531,7.84929553 L17.7553531,10.6379536 C17.7553531,11.0752154 18.1190828,11.4329041 18.5637297,11.4329041 C19.0083766,11.4329041 19.3719474,11.0752154 19.3719474,10.6379536 L19.3719474,7.84929553 L22.5782696,7.84929553 L24.3834057,27.8403064 C24.3632161,29.2577727 22.9353225,30.4036894 21.1839193,30.4036894 L4.81592174,30.4036894 C3.06467747,30.4036894 1.63662489,29.2577727 1.61659431,27.8335841 L3.42157138,7.84929553 Z M13,1.58974459 C15.6201895,1.58974459 17.7486762,3.68287964 17.7553531,6.25955094 L8.24448792,6.25955094 C8.25116478,3.68287964 10.3798105,1.58974459 13,1.58974459 Z M13,0 C9.49067563,0 6.63457047,2.8085123 6.62789361,6.25955094 L2.68075818,6.25955094 C2.26313666,6.25955094 1.9129196,6.57096516 1.87238153,6.98165048 L0,27.7341567 L0,27.8071639 C0,30.1190081 2.16202996,32 4.81592174,32 L21.1839193,32 C23.83797,32 26,30.1190081 26,27.8071639 L26,27.7341567 L24.1274595,6.98165048 C24.0937573,6.57096516 23.7435402,6.25955094 23.3190828,6.25955094 L19.3719474,6.25955094 C19.3652706,2.8085123 16.5093244,0 13,0 Z" id="Page-1"></path>
        </g>
    </g>
</svg>