<?xml version="1.0" encoding="UTF-8"?>
<svg width="32px" height="32px" viewBox="0 0 32 32" version="1.1" xmlns="http://www.w3.org/2000/svg" xmlns:xlink="http://www.w3.org/1999/xlink">
    <!-- Generator: Sketch 48.2 (47327) - http://www.bohemiancoding.com/sketch -->
    <title>Fill 1</title>
    <desc>Created with Sketch.</desc>
    <defs></defs>
    <g id="Overview:-ATTRACTION-POWER" stroke="none" stroke-width="1" fill="none" fill-rule="evenodd">
        <g id="Page-1" fill="#979797">
            <path d="M18.1973869,0 C17.5910724,0 17.1003161,0.490756317 17.1003161,1.09707075 C17.1003161,1.70265381 17.5918038,2.19414151 18.1973869,2.19414151 C21.2977088,2.19414151 24.2144543,3.40165072 26.407133,5.59432947 C28.5990804,7.78700821 29.8058582,10.7022909 29.8058582,13.8033442 C29.8058582,14.4089273 30.2973459,14.900415 30.902929,14.900415 C31.2064519,14.900415 31.4807196,14.7775431 31.6789237,14.5793389 C31.8771278,14.3811348 31.9999997,14.1068671 31.9999997,13.8033442 C32.0007311,10.1164551 30.5642998,6.65044291 27.9583911,4.04307142 C25.3510196,1.43569993 21.8850074,0 18.1973869,0 Z M18.1981183,4.78395987 C17.5918038,4.78395987 17.1010475,5.27471619 17.1010475,5.88103062 C17.1003161,6.48661368 17.5918038,6.97810138 18.1981183,6.97810138 C21.9603396,6.97810138 25.0204356,10.0403915 25.021167,13.8033442 C25.021167,14.4096587 25.5119233,14.900415 26.1175063,14.900415 C26.4210292,14.900415 26.6952969,14.7775431 26.8942324,14.5793389 C27.0924365,14.3811348 27.2145771,14.1068671 27.2145771,13.8033442 C27.2145771,8.82995681 23.1693115,4.78395987 18.1981183,4.78395987 Z M13.3227358,11.4812111 L9.47640576,15.3282726 C7.75839296,17.0470168 7.53020224,19.6960769 8.78671394,21.6634905 L4.64051787,25.8096866 C1.14890735,21.537693 1.3946512,15.2119831 5.37701804,11.2296162 L9.22407948,7.38182341 L13.3227358,11.4812111 Z M16.6724585,22.5250567 L20.5202513,18.6772639 L24.6181763,22.7759202 L20.7711149,26.6237131 C16.7880166,30.6060799 10.4623067,30.8510924 6.19031316,27.3602132 L10.3365092,23.2140172 C12.3068483,24.4705289 14.9551771,24.2423381 16.6724585,22.5250567 Z M8.44881615,5.05457065 L3.82575999,9.67762681 C-1.27488763,14.7775431 -1.27561901,23.0757862 3.82575999,28.1757025 C8.92567624,33.2770815 17.2239194,33.2763501 22.3238357,28.1757025 L26.9468918,23.5526463 C27.3754808,23.1247887 27.3754808,22.4299773 26.9468918,22.0013883 L21.2955147,16.3507425 C20.8669257,15.9221535 20.1721142,15.9221535 19.7442566,16.3507425 L15.1212005,20.9730673 C13.9926804,22.1023188 12.1561839,22.1015874 11.0269324,20.9730673 C9.89841231,19.8445472 9.89841231,18.0080507 11.0269324,16.8795306 L15.6499886,12.2564745 C16.0778462,11.8286169 16.0785776,11.1338054 15.6499886,10.7052164 L9.99934282,5.05457065 C9.57148522,4.62598168 8.87667374,4.62671306 8.44881615,5.05457065 Z" id="Fill-1"></path>
        </g>
    </g>
</svg>