<?xml version="1.0" encoding="UTF-8"?>
<svg width="80px" height="80px" viewBox="0 0 80 80" version="1.1" xmlns="http://www.w3.org/2000/svg" xmlns:xlink="http://www.w3.org/1999/xlink">
    <!-- Generator: Sketch 48.2 (47327) - http://www.bohemiancoding.com/sketch -->
    <title>Ic-Funnel-attraction Copy</title>
    <desc>Created with Sketch.</desc>
    <defs></defs>
    <g id="Symbols" stroke="none" stroke-width="1" fill="none" fill-rule="evenodd">
        <g id="Ic-Funnel-attraction-Copy">
            <circle id="Oval-8" fill="#CCCCCC" cx="40" cy="40" r="40"></circle>
            <path d="M43.433417,15 C42.4860507,15 41.7192439,15.7668067 41.7192439,16.7141731 C41.7192439,17.6603966 42.4871935,18.4283461 43.433417,18.4283461 C48.27767,18.4283461 52.8350848,20.3150792 56.2611453,23.7411398 C59.6860631,27.1672003 61.5716535,31.7223295 61.5716535,36.5677254 C61.5716535,37.5139489 62.339603,38.2818984 63.2858265,38.2818984 C63.7600811,38.2818984 64.1886243,38.089911 64.4983183,37.7802171 C64.8080122,37.4705232 64.9999996,37.0419799 64.9999996,36.5677254 C65.0011423,30.8069611 62.7567184,25.391317 58.684986,21.3172991 C54.6109681,17.2432811 49.195324,15 43.433417,15 Z M43.4345598,22.4749373 C42.4871935,22.4749373 41.7203867,23.241744 41.7203867,24.1891103 C41.7192439,25.1353339 42.4871935,25.9032834 43.4345598,25.9032834 C49.3130306,25.9032834 54.0944306,30.6881118 54.0955734,36.5677254 C54.0955734,37.5150917 54.8623801,38.2818984 55.8086037,38.2818984 C56.2828582,38.2818984 56.7114015,38.089911 57.0222382,37.7802171 C57.3319321,37.4705232 57.5227767,37.0419799 57.5227767,36.5677254 C57.5227767,28.7968075 51.2020493,22.4749373 43.4345598,22.4749373 Z M35.8167747,32.9393924 L29.806884,38.9504259 C27.122489,41.6359637 26.765941,45.7751202 28.7292405,48.8492039 L22.2508092,55.3276353 C16.7951677,48.6526454 17.1791425,38.7687236 23.4015907,32.5462754 L29.4126242,26.5340991 L35.8167747,32.9393924 Z M41.0507164,50.1954011 L47.0628927,44.1832248 L53.4659005,50.5873754 L47.454867,56.5995517 C41.231276,62.8219998 31.3473542,63.2048318 24.6723643,57.7503332 L31.1507957,51.2719018 C34.2294505,53.2352013 38.3674642,52.8786534 41.0507164,50.1954011 Z M28.2012752,22.8977666 L20.97775,30.1212919 C13.0079881,38.089911 13.0068453,51.055916 20.97775,59.0245351 C28.9463691,66.9954398 41.9123741,66.9942971 49.8809932,59.0245351 L57.1045185,51.8010099 C57.7741888,51.1324824 57.7741888,50.0468395 57.1045185,49.3771692 L48.2742417,40.5480352 C47.6045714,39.8783649 46.5189285,39.8783649 45.850401,40.5480352 L38.6268757,47.7704177 C36.8635631,49.5348731 33.9940374,49.5337303 32.2295819,47.7704177 C30.4662692,46.007105 30.4662692,43.1375793 32.2295819,41.3742666 L39.4531072,34.1507414 C40.1216346,33.4822139 40.1227774,32.3965709 39.4531072,31.7269007 L30.6239732,22.8977666 C29.9554457,22.2280964 28.8698027,22.2292392 28.2012752,22.8977666 Z" id="Fill-1" fill="#FFFFFF"></path>
        </g>
    </g>
</svg>