<?xml version="1.0" encoding="UTF-8"?>
<svg width="37px" height="27px" viewBox="0 0 37 27" version="1.1" xmlns="http://www.w3.org/2000/svg" xmlns:xlink="http://www.w3.org/1999/xlink">
    <!-- Generator: Sketch 48.2 (47327) - http://www.bohemiancoding.com/sketch -->
    <title>ic-nearby-camera-store</title>
    <desc>Created with Sketch.</desc>
    <defs></defs>
    <g id="OVERVIEW:-attraction-power" stroke="none" stroke-width="1" fill="none" fill-rule="evenodd" transform="translate(-421.000000, -262.000000)" stroke-linecap="round" stroke-linejoin="round">
        <g id="ic-nearby-camera-store" transform="translate(422.000000, 263.000000)" stroke="#999999">
            <g id="Shape">
                <path d="M30.7774648,7.64324324 C31.6647887,8.92972973 31.6647887,8.92972973 31.6647887,8.92972973 C32.5521127,10.2162162 32.0957746,11.7297297 30.7774648,12.5873874 C17.8732394,20.1045045 17.8732394,20.1045045 17.8732394,20.1045045 C16.5549296,20.7603604 15.0338028,20.5333333 14.1464789,19.2468468 C11.7380282,15.1603604 11.7380282,15.1603604 11.7380282,15.1603604" stroke-width="1.52112676"></path>
                <polygon stroke-width="1.52112676" points="9.88732394 21.2648649 13.7661972 18.9945946 11.256338 14.7063063 7.17464789 16.9513514"></polygon>
                <path d="M24.5661972,0.857657658 C0.076056338,15.3369369 0.076056338,15.3369369 0.076056338,15.3369369 C6.36338028,17.7081081 6.36338028,17.7081081 6.36338028,17.7081081 C15.6929577,12.3099099 15.6929577,12.3099099 15.6929577,12.3099099 C20.4591549,13.5963964 20.4591549,13.5963964 20.4591549,13.5963964 C33.0338028,6.25585586 33.0338028,6.25585586 33.0338028,6.25585586 C30.6507042,2.37117117 30.6507042,2.37117117 30.6507042,2.37117117 C29.3323944,0.201801802 26.7464789,-0.428828829 24.5661972,0.857657658 Z" stroke-width="1.52112676"></path>
                <path d="M27.4816901,14.7063063 C29.9661972,19.1963964 29.9661972,19.1963964 29.9661972,19.1963964 C31.0056338,20.7603604 30.371831,23.0054054 28.9267606,23.9135135 C27.4816901,24.8216216 25.4028169,24.3675676 24.5661972,22.8036036 C21.8788732,18.3135135 21.8788732,18.3135135 21.8788732,18.3135135" stroke-width="1.52112676"></path>
                <path d="M34.5549296,24.2918919 C27.228169,24.2918919 27.228169,24.2918919 27.228169,24.2918919 C26.1380282,24.2918919 25.0732394,23.636036 24.4140845,22.7783784" stroke-width="1.52112676"></path>
            </g>
        </g>
    </g>
</svg>