<?xml version="1.0" encoding="UTF-8"?>
<svg width="80px" height="80px" viewBox="0 0 80 80" version="1.1" xmlns="http://www.w3.org/2000/svg" xmlns:xlink="http://www.w3.org/1999/xlink">
    <!-- Generator: Sketch 48.2 (47327) - http://www.bohemiancoding.com/sketch -->
    <title>Ic-General</title>
    <desc>Created with Sketch.</desc>
    <defs></defs>
    <g id="Symbols" stroke="none" stroke-width="1" fill="none" fill-rule="evenodd">
        <g id="Ic-General">
            <circle id="Oval-8" fill="#CCCCCC" cx="40" cy="40" r="40"></circle>
            <g id="Group-2-Copy" transform="translate(19.000000, 18.000000)">
                <g id="Group">
                    <g id="Group-2">
                        <path d="M8.58,13.5284223 C9.06,13.5284223 9.54,13.4484223 10.1,13.3684223 C13.7,12.5684223 16.02,8.88842231 15.22,5.28842231 C14.82,3.52842231 13.78,2.00842231 12.26,1.04842231 C10.74,0.0884223069 8.9,-0.231577693 7.14,0.168422307 C3.54,0.968422307 1.22,4.64842231 2.02,8.24842231 C2.74,11.4484223 5.54,13.5284223 8.58,13.5284223 Z M11.14,2.80842231 C12.18,3.44842231 12.98,4.56842231 13.22,5.76842231 C13.78,8.32842231 12.18,10.8084223 9.62,11.4484223 C7.06,12.0084223 4.58,10.4084223 3.94,7.84842231 C3.38,5.28842231 4.98,2.80842231 7.54,2.16842231 C7.86,2.08842231 8.26,2.08842231 8.58,2.08842231 C9.46,2.08842231 10.34,2.32842231 11.14,2.80842231 Z" id="Shape" fill="#FFFFFF" fill-rule="nonzero"></path>
                        <path d="M32.18,13.5284223 C32.66,13.5284223 33.14,13.4484223 33.7,13.3684223 C37.3,12.5684223 39.62,8.88842231 38.82,5.28842231 C38.42,3.52842231 37.38,2.00842231 35.86,1.04842231 C34.34,0.0884223069 32.5,-0.231577693 30.74,0.168422307 C27.14,0.968422307 24.82,4.64842231 25.62,8.24842231 C26.26,11.4484223 29.06,13.5284223 32.18,13.5284223 Z M34.66,2.80842231 C35.7,3.44842231 36.5,4.56842231 36.74,5.76842231 C37.3,8.32842231 35.7,10.8084223 33.14,11.4484223 C30.58,12.0084223 28.1,10.4084223 27.46,7.84842231 C26.9,5.28842231 28.5,2.80842231 31.06,2.16842231 C31.38,2.08842231 31.78,2.08842231 32.1,2.08842231 C33.06,2.08842231 33.94,2.32842231 34.66,2.80842231 Z" id="Shape" fill="#FFFFFF" fill-rule="nonzero"></path>
                        <path d="M22.5,43.5 L27,30 L24,30 L24,21.75 C24,17.1936508 27.6936508,13.5 32.25,13.5 L32.25,13.5 C36.8063492,13.5 40.5,17.1936508 40.5,21.75 L40.5,30 L37.5,30 L42,43.5" id="Path-2" stroke="#FFFFFF" stroke-width="2" stroke-linecap="round" stroke-linejoin="round"></path>
                        <path d="M3,43.5 L3,34.5 L0,34.5 L0,21.75 C-5.57991845e-16,17.1936508 3.69365081,13.5 8.25,13.5 L8.25,13.5 C12.8063492,13.5 16.5,17.1936508 16.5,21.75 L16.5,34.5 L13.5,34.5 L13.5,43.5" id="Path-2-Copy" stroke="#FFFFFF" stroke-width="2" stroke-linecap="round" stroke-linejoin="round"></path>
                    </g>
                </g>
            </g>
        </g>
    </g>
</svg>