<?xml version="1.0" encoding="UTF-8"?>
<svg width="38px" height="28px" viewBox="0 0 38 28" version="1.1" xmlns="http://www.w3.org/2000/svg" xmlns:xlink="http://www.w3.org/1999/xlink">
    <!-- Generator: Sketch 48.2 (47327) - http://www.bohemiancoding.com/sketch -->
    <title>ic-shop-store</title>
    <desc>Created with Sketch.</desc>
    <defs></defs>
    <g id="OVERVIEW:-attraction-power" stroke="none" stroke-width="1" fill="none" fill-rule="evenodd" transform="translate(-687.000000, -264.000000)" stroke-linecap="round" stroke-linejoin="round">
        <g id="ic-shop-store" transform="translate(688.000000, 265.000000)" stroke="#999999">
            <g id="Shape">
                <path d="M3.00431655,0 C0.0258992806,7.77425743 0.0258992806,7.77425743 0.0258992806,7.77425743 C0.0258992806,9.78217822 1.63165468,11.3267327 3.70359712,11.3267327 C5.54244604,11.3267327 7.38129496,9.78217822 7.38129496,7.77425743 C8.31366906,0 8.31366906,0 8.31366906,0 L3.00431655,0 Z" stroke-width="1.55395683"></path>
                <path d="M8.18417266,0 C7.27769784,7.77425743 7.27769784,7.77425743 7.27769784,7.77425743 C7.27769784,9.78217822 8.85755396,11.3267327 10.9035971,11.3267327 C12.9496403,11.3267327 14.5294964,9.78217822 14.5294964,7.77425743 C14.5294964,0 14.5294964,0 14.5294964,0 L8.18417266,0 Z" stroke-width="1.55395683"></path>
                <path d="M14.5294964,0 C14.5294964,7.77425743 14.5294964,7.77425743 14.5294964,7.77425743 C14.5294964,9.78217822 16.0057554,11.3267327 17.8964029,11.3267327 C19.7870504,11.3267327 21.2633094,9.78217822 21.2633094,7.77425743 C21.2633094,0 21.2633094,0 21.2633094,0 L14.5294964,0 Z" stroke-width="1.55395683"></path>
                <path d="M21.2633094,0 C21.2633094,7.77425743 21.2633094,7.77425743 21.2633094,7.77425743 C21.2633094,9.78217822 22.8431655,11.3267327 24.8892086,11.3267327 C26.9352518,11.3267327 28.5151079,9.78217822 28.5151079,7.77425743 C27.6086331,0 27.6086331,0 27.6086331,0 L21.2633094,0 Z" stroke-width="1.55395683"></path>
                <path d="M27.4791367,0 C28.4115108,7.77425743 28.4115108,7.77425743 28.4115108,7.77425743 C28.4115108,9.78217822 30.0172662,11.3267327 32.0892086,11.3267327 C34.1611511,11.3267327 35.7669065,9.78217822 35.7669065,7.77425743 C32.7625899,0 32.7625899,0 32.7625899,0 L27.4791367,0 Z" stroke-width="1.55395683"></path>
                <polyline stroke-width="1.55395683" points="4.16978417 11.3267327 4.16978417 25.7425743 31.6230216 25.7425743 31.6230216 11.3267327"></polyline>
                <path d="M20.7453237,18.5346535 L23.8532374,15.4455446" stroke-width="1.55395683"></path>
                <path d="M21.2633094,22.1386139 L28.5151079,14.9306931" stroke-width="1.55395683"></path>
            </g>
        </g>
    </g>
</svg>