<?xml version="1.0" encoding="UTF-8"?>
<svg width="40px" height="40px" viewBox="0 0 40 40" version="1.1" xmlns="http://www.w3.org/2000/svg" xmlns:xlink="http://www.w3.org/1999/xlink">
    <!-- Generator: Sketch 48.2 (47327) - http://www.bohemiancoding.com/sketch -->
    <title>Group 6</title>
    <desc>Created with Sketch.</desc>
    <defs></defs>
    <g id="OVERVIEW:-attraction-power-Copy" stroke="none" stroke-width="1" fill="none" fill-rule="evenodd" transform="translate(-531.000000, -657.000000)">
        <g id="Group-9" transform="translate(186.000000, 424.000000)" fill="#E90D8B">
            <g id="Group-6" transform="translate(345.000000, 233.000000)">
                <circle id="Oval-3-Copy-2" cx="20" cy="20" r="3"></circle>
                <path d="M20,40 C8.954305,40 0,31.045695 0,20 C0,8.954305 8.954305,0 20,0 C31.045695,0 40,8.954305 40,20 C40,31.045695 31.045695,40 20,40 Z M20,27.5 C24.1421356,27.5 27.5,24.1421356 27.5,20 C27.5,15.8578644 24.1421356,12.5 20,12.5 C15.8578644,12.5 12.5,15.8578644 12.5,20 C12.5,24.1421356 15.8578644,27.5 20,27.5 Z" id="Combined-Shape" opacity="0.454608243" style="mix-blend-mode: multiply;"></path>
            </g>
        </g>
    </g>
</svg>