<svg xmlns="http://www.w3.org/2000/svg" viewBox="0 0 20 24" height="48" width="40">
  <title>ic_work</title>
  <g id="9278069a-a835-4bb1-a2ed-e9a17c217756" data-name="Layer 2">
    <path d="M13.27,23.75a2,2,0,0,1-.75-3.87v-.33h-5v.33a2,2,0,1,1-2.73,1.86A2,2,0,0,1,6,19.88V18.8a.75.75,0,0,1,.75-.75H9.25v-.18H6.32a2,2,0,0,1-2-1.68H4.19a2.37,2.37,0,0,1-2.3-2.43V12.42H1.82a1.59,1.59,0,0,1,0-3.18h.82a1.59,1.59,0,0,1,.75,3v1.54a.87.87,0,0,0,.8.93h.18a2,2,0,0,1,1-1.45A3.29,3.29,0,0,1,5,12.53l-.29-.71a3.32,3.32,0,0,1-.2-1.89l1.12-7A3.23,3.23,0,0,1,8.76.25h2.48a3.22,3.22,0,0,1,3.15,2.66l1.12,7a3.31,3.31,0,0,1-.2,1.87l-.3.71a3.29,3.29,0,0,1-.41.72,2,2,0,0,1,1,1.45h.18a.87.87,0,0,0,.8-.93V12.22a1.59,1.59,0,0,1,.75-3h.82a1.59,1.59,0,0,1,0,3.18h-.07v1.35a2.37,2.37,0,0,1-2.3,2.43h-.18a2,2,0,0,1-2,1.68H10.75v.18h2.52a.75.75,0,0,1,.75.75v1.08a2,2,0,0,1-.75,3.87Zm0-2.52a.51.51,0,1,0,.48.51A.49.49,0,0,0,13.27,21.23Zm-6.54,0a.51.51,0,1,0,.48.51A.49.49,0,0,0,6.73,21.23ZM10,16.37h3.68a.5.5,0,0,0,.48-.51V15a.5.5,0,0,0-.48-.51H6.32a.5.5,0,0,0-.48.51v.84a.5.5,0,0,0,.48.51ZM7.94,13h4.13a1.7,1.7,0,0,0,1.56-1.07l.29-.71a1.82,1.82,0,0,0,.11-1l-1.12-7a1.72,1.72,0,0,0-1.67-1.42H8.76A1.72,1.72,0,0,0,7.09,3.19L6,10.19a1.84,1.84,0,0,0,.11,1.05l.29.71A1.7,1.7,0,0,0,7.94,13Zm9.43-2.28a.09.09,0,0,0,0,.18h.82a.09.09,0,0,0,0-.18Zm-15.55,0a.09.09,0,0,0,0,.18h.82a.09.09,0,0,0,0-.18Z" fill="#999" />
  </g>
</svg>
