<?xml version="1.0" encoding="UTF-8"?>
<svg width="29px" height="28px" viewBox="0 0 29 28" version="1.1" xmlns="http://www.w3.org/2000/svg" xmlns:xlink="http://www.w3.org/1999/xlink">
    <!-- Generator: Sketch 48.2 (47327) - http://www.bohemiancoding.com/sketch -->
    <title>ic-zoom-hand</title>
    <desc>Created with Sketch.</desc>
    <defs>
        <polygon id="path-1" points="0 4.58261618e-05 0 18.8875275 16.3780604 18.8875275 16.3780604 4.58261618e-05"></polygon>
    </defs>
    <g id="Symbols" stroke="none" stroke-width="1" fill="none" fill-rule="evenodd">
        <g id="ic-zoom-hand">
            <circle id="Oval" fill="#999999" opacity="0.98999995" cx="14" cy="14" r="14"></circle>
            <g id="Page-1" transform="translate(5.000000, 5.000000)">
                <mask id="mask-2" fill="white">
                    <use xlink:href="#path-1"></use>
                </mask>
                <g id="Clip-2"></g>
                <path d="M15.0779757,12.4851545 C15.073521,12.5112754 15.0706255,12.5376254 15.0688437,12.564892 C14.9109269,15.360517 12.6524279,17.5503201 9.92752874,17.5503201 C8.53456494,17.5503201 7.22958014,16.9868875 6.25290181,15.9640475 C6.25156542,15.9626728 6.25022903,15.9610688 6.24866991,15.9596941 L1.50894018,11.0837904 C1.37396479,10.9449372 1.29957242,10.7602577 1.29957242,10.5638926 C1.29957242,10.3675275 1.37396479,10.1828481 1.50894018,10.0439948 C1.6483702,9.90055895 1.83123289,9.82907014 2.01431832,9.82907014 C2.19740374,9.82907014 2.38048917,9.90078808 2.51969645,10.0439948 L4.34965977,11.9263044 C4.53541798,12.1176287 4.81494621,12.1746822 5.05772372,12.0713442 C5.30094669,11.9677771 5.45908617,11.7239819 5.45908617,11.4536076 L5.45908617,2.07276312 C5.45908617,1.66720159 5.77981976,1.33748236 6.17383207,1.33748236 C6.56806711,1.33748236 6.88857797,1.66743072 6.88857797,2.07276312 L6.88857797,5.58281799 L6.88857797,8.39081605 C6.88857797,8.76017491 7.17968825,9.05941975 7.53850895,9.05941975 C7.89732966,9.05941975 8.18843994,8.75994578 8.18843994,8.39081605 L8.18843994,5.58281799 C8.18843994,5.17725645 8.50939626,4.84753722 8.90318583,4.84753722 C9.29742087,4.84753722 9.61793173,5.17748559 9.61793173,5.58281799 L9.61793173,6.98693158 L9.61793173,8.39104518 C9.61793173,8.76040404 9.90904201,9.05964888 10.2678627,9.05964888 C10.6269062,9.05964888 10.9177937,8.76017491 10.9177937,8.39104518 L10.9177937,6.98693158 C10.9177937,6.58137005 11.23875,6.25165082 11.6325396,6.25165082 C12.0269974,6.25165082 12.3472855,6.58159918 12.3472855,6.98693158 L12.3472855,8.39104518 L12.3472855,9.09310198 C12.3472855,9.46246084 12.6383958,9.76170568 12.9972165,9.76170568 C13.3564826,9.76170568 13.6471475,9.46223171 13.6471475,9.09310198 L13.6471475,8.39104518 C13.6471475,7.98571278 13.9681038,7.65576441 14.3618934,7.65576441 C14.7561284,7.65576441 15.0766393,7.98571278 15.0766393,8.39104518 L15.0766393,12.4851545 L15.0779757,12.4851545 Z M14.3632298,6.31809875 C14.0883789,6.31809875 13.826001,6.37492319 13.5872326,6.47803206 C13.3660601,5.58029755 12.5742491,4.91398515 11.6334305,4.91398515 C11.3585797,4.91398515 11.0962018,4.9708096 10.8574334,5.07391846 C10.6364836,4.17618395 9.8442271,3.50987156 8.90385403,3.50987156 C8.65216725,3.50987156 8.4111716,3.55753077 8.18910813,3.64460047 L8.18910813,2.07276312 C8.18910813,0.929858649 7.28526306,4.58261618e-05 6.17427753,4.58261618e-05 C5.06329201,4.58261618e-05 4.15944694,0.929858649 4.15944694,2.07276312 L4.15944694,9.83938102 L3.43935548,9.09860112 C2.65378091,8.29045676 1.37552391,8.29045676 0.589949348,9.09860112 C0.209300941,9.49018567 -6.68194981e-05,10.0105417 -6.68194981e-05,10.5641218 C-6.68194981e-05,11.1177018 0.209523673,11.638287 0.589949348,12.0296424 L5.32745176,16.9032547 C6.55024858,18.1829503 8.18376257,18.8875275 9.92752874,18.8875275 C13.3003543,18.8875275 16.1023186,16.2085301 16.3586827,12.7656106 C16.3716011,12.7133688 16.3780604,12.6590648 16.3780604,12.6029277 L16.3780604,8.39081605 C16.3780604,7.24791157 15.4742153,6.31809875 14.3632298,6.31809875 Z" id="Fill-1" fill="#FFFFFF" mask="url(#mask-2)"></path>
            </g>
        </g>
    </g>
</svg>