<?xml version="1.0" encoding="UTF-8"?>
<svg width="30px" height="30px" viewBox="0 0 30 30" version="1.1" xmlns="http://www.w3.org/2000/svg" xmlns:xlink="http://www.w3.org/1999/xlink">
    <!-- Generator: Sketch 48.2 (47327) - http://www.bohemiancoding.com/sketch -->
    <title>ic-zoom-area</title>
    <desc>Created with Sketch.</desc>
    <defs></defs>
    <g id="Symbols" stroke="none" stroke-width="1" fill="none" fill-rule="evenodd">
        <g id="ic-zoom-area">
            <g id="zoom-area" transform="translate(-5.000000, -5.000000)">
                <g id="boton-copy-3" transform="translate(20.127603, 20.553571) rotate(-45.000000) translate(-20.127603, -20.553571) translate(6.127603, 6.553571)" fill="#999999" opacity="0.98999995">
                    <circle id="Oval" cx="14" cy="14" r="14"></circle>
                </g>
                <g id="Page-1" transform="translate(12.000000, 12.399725)" fill="#FFFFFF">
                    <path d="M15.0874708,10.1428636 C15.5417031,10.1428636 15.9115779,10.5127385 15.9115779,10.9669708 L15.9115779,13.4392922 C15.9115779,14.8052336 14.8052303,15.9116136 13.4392565,15.9116136 L10.9669351,15.9116136 C10.5127028,15.9116136 10.1428604,15.5417388 10.1428604,15.0875065 C10.1428604,14.6332742 10.5127028,14.2633993 10.9669351,14.2633993 L13.4392565,14.2633993 C13.8934888,14.2633993 14.2633961,13.8935245 14.2633961,13.4392922 L14.2633961,10.9669708 C14.2633961,10.5127385 14.6332385,10.1428636 15.0874708,10.1428636 Z M3.24451661e-06,10.9669708 C3.24451661e-06,10.5127385 0.369878104,10.1428636 0.824110387,10.1428636 C1.27834267,10.1428636 1.64821753,10.5127385 1.64821753,10.9669708 L1.64821753,13.4392922 C1.64821753,13.8935245 2.01809239,14.2633993 2.47232467,14.2633993 L4.9446461,14.2633993 C5.39887839,14.2633993 5.76875324,14.6332742 5.76875324,15.0875065 C5.76875324,15.5417388 5.39887839,15.9116136 4.9446461,15.9116136 L2.47232467,15.9116136 C1.10638331,15.9116136 3.24451661e-06,14.8052336 3.24451661e-06,13.4392922 L3.24451661e-06,10.9669708 Z M13.439289,6.48903264e-06 C14.8052628,6.48903264e-06 15.9116104,1.10638655 15.9116104,2.47232792 L15.9116104,4.94464935 C15.9116104,5.39888163 15.5417355,5.76875649 15.0875032,5.76875649 C14.633271,5.76875649 14.2633961,5.39888163 14.2633961,4.94464935 L14.2633961,2.47232792 C14.2633961,2.01809563 13.8935212,1.64822077 13.439289,1.64822077 L10.9669675,1.64822077 C10.5127352,1.64822077 10.1428604,1.27834592 10.1428604,0.824113632 C10.1428604,0.369881348 10.5127352,6.48903264e-06 10.9669675,6.48903264e-06 L13.439289,6.48903264e-06 Z M4.94464286,1.42108547e-14 C5.39887514,1.42108547e-14 5.76875,0.369874859 5.76875,0.824107143 C5.76875,1.27833943 5.39887514,1.64821429 4.94464286,1.64821429 L2.47232143,1.64821429 C2.01808915,1.64821429 1.64821429,2.01808915 1.64821429,2.47232143 L1.64821429,4.94464286 C1.64821429,5.39887514 1.27833943,5.76875 0.824107143,5.76875 C0.369874859,5.76875 1.31450406e-13,5.39887514 1.31450406e-13,4.94464286 L1.31450406e-13,2.47232143 C1.31450406e-13,1.10638006 1.10638006,1.42108547e-14 2.47232143,1.42108547e-14 L4.94464286,1.42108547e-14 Z" id="Fill-7"></path>
                </g>
            </g>
        </g>
    </g>
</svg>