<?xml version="1.0" encoding="UTF-8"?>
<svg width="36px" height="27px" viewBox="0 0 36 27" version="1.1" xmlns="http://www.w3.org/2000/svg" xmlns:xlink="http://www.w3.org/1999/xlink">
    <!-- Generator: Sketch 48.2 (47327) - http://www.bohemiancoding.com/sketch -->
    <title>ic_city_store</title>
    <desc>Created with Sketch.</desc>
    <defs></defs>
    <g id="Icons-FUNNEL-ATTRACTION" stroke="none" stroke-width="1" fill="none" fill-rule="evenodd" transform="translate(-53.000000, -75.000000)">
        <g id="ic_city_store" transform="translate(50.000000, 69.000000)" fill="#999999">
            <g transform="translate(3.000000, 6.000000)">
                <path d="M2.03076923,25.9966555 L8.63076923,25.9966555 L8.63076923,7.40802676 L2.03076923,7.40802676 L2.03076923,25.9966555 Z M16.0615385,10.2173913 L16.0153846,25.9966555 L9.73846154,25.9966555 L9.73846154,10.2173913 L16.0615385,10.2173913 Z M11.9076923,1 L18.5076923,1 L18.5076923,13.576199 C18.5076923,13.6151346 18.5076923,13.6930058 18.5538462,13.7319414 C18.5076923,13.770877 18.5076923,13.8487482 18.5076923,13.8876838 L18.5076923,25.9966555 L16.8923077,25.9966555 L16.9846154,12.4860021 C16.9846154,12.3691953 16.9384615,12.2913241 16.8461538,12.2134529 C16.7538462,12.1355817 16.6615385,12.0966461 16.5230769,12.0966461 L11.9076923,12.0966461 L11.9076923,1 Z M21.3692308,10.3110368 L23.7692308,10.3110368 C23.9538462,10.3110368 24.3230769,10.5919732 24.4615385,11.0133779 L20.6769231,11.0133779 C20.8153846,10.5451505 21.1846154,10.3110368 21.3692308,10.3110368 Z M23.2615385,9.04682274 C23.3076923,9.04682274 23.4,9.18729097 23.4923077,9.37458194 L21.6461538,9.37458194 C21.7384615,9.18729097 21.8307692,9.09364548 21.8307692,9.04682274 L23.2615385,9.04682274 Z M25.6615385,25.9966555 L19.4307692,25.9966555 L19.4307692,11.90301 L25.7076923,11.90301 L25.6615385,25.9966555 Z M26.6307692,25.9966555 L33.2764615,25.9966555 L33.2764615,5.76923077 L26.6307692,5.76923077 L26.6307692,25.9966555 Z M35.1692308,26.9331104 C35.4461538,26.9331104 35.6307692,26.7458194 35.6307692,26.4648829 C35.6307692,26.1839465 35.4461538,25.9966555 35.1692308,25.9966555 L34.2,25.9966555 L34.2,5.30100334 C34.2,5.02006689 34.0153846,4.83277592 33.7384615,4.83277592 L26.1692308,4.83277592 C25.8923077,4.83277592 25.7076923,5.02006689 25.7076923,5.30100334 L25.7076923,10.9665552 L25.4307692,10.9665552 C25.2923077,10.3578595 24.9230769,9.84280936 24.5076923,9.60869565 C24.4153846,8.81270903 23.9076923,8.11036789 23.3076923,8.11036789 L23.0307692,8.11036789 L23.0307692,6.14381271 C23.0307692,5.86287625 22.8461538,5.67558528 22.5692308,5.67558528 C22.2923077,5.67558528 22.1076923,5.86287625 22.1076923,6.14381271 L22.1076923,8.11036789 L21.8307692,8.11036789 C21.2769231,8.11036789 20.7230769,8.81270903 20.6307692,9.60869565 C20.2153846,9.88963211 19.8,10.4046823 19.7076923,10.9665552 L19.4307692,10.9665552 L19.4307692,0.468227425 C19.4307692,0.18729097 19.2461538,-1.77635684e-15 18.9692308,-1.77635684e-15 L11.4461538,-1.77635684e-15 C11.1692308,-1.77635684e-15 10.9846154,0.18729097 10.9846154,0.468227425 L10.9846154,9.28093645 L9.55384615,9.28093645 L9.55384615,6.93979933 C9.55384615,6.65886288 9.36923077,6.47157191 9.09230769,6.47157191 L1.56923077,6.47157191 C1.29230769,6.47157191 1.10769231,6.65886288 1.10769231,6.93979933 L1.10769231,25.9966555 L0.461538462,25.9966555 C0.184615385,25.9966555 0,26.1839465 0,26.4648829 C0,26.7458194 0.230769231,26.9331104 0.507692308,26.9331104 L35.1692308,26.9331104 Z" id="Fill-1"></path>
                <path d="M30.0615385,11.1404682 C30.3384615,11.1404682 30.5230769,10.9531773 30.5230769,10.6722408 L30.5230769,9.50167224 C30.5230769,9.22073579 30.3384615,9.03344482 30.0615385,9.03344482 C29.7846154,9.03344482 29.6,9.22073579 29.6,9.50167224 L29.6,10.6722408 C29.6,10.9063545 29.7846154,11.1404682 30.0615385,11.1404682" id="Fill-5" opacity="0.900000036"></path>
                <path d="M30.0615385,17.1336856 C30.3384615,17.1336856 30.5230769,16.9463946 30.5230769,16.6654582 L30.5230769,15.4948896 C30.5230769,15.2139532 30.3384615,15.0266622 30.0615385,15.0266622 C29.7846154,15.0266622 29.6,15.2139532 29.6,15.4948896 L29.6,16.6654582 C29.6,16.8995719 29.7846154,17.1336856 30.0615385,17.1336856" id="Fill-11" opacity="0.900000036"></path>
                <path d="M30.0615385,23.126903 C30.3384615,23.126903 30.5230769,22.9400803 30.5230769,22.6586756 L30.5230769,21.488107 C30.5230769,21.2071706 30.3384615,21.0198796 30.0615385,21.0198796 C29.7846154,21.0198796 29.6,21.2071706 29.6,21.488107 L29.6,22.6586756 C29.6,22.8927893 29.7846154,23.126903 30.0615385,23.126903" id="Fill-17" opacity="0.900000036"></path>
                <path d="M23.4616308,15.1336856 C23.7385538,15.1336856 23.9231692,14.9463946 23.9231692,14.6654582 L23.9231692,13.4948896 C23.9231692,13.2139532 23.7385538,13.0266622 23.4616308,13.0266622 C23.1842462,13.0266622 23.0000923,13.2139532 23.0000923,13.4948896 L23.0000923,14.6654582 C23.0000923,14.8995719 23.1842462,15.1336856 23.4616308,15.1336856" id="Fill-21" opacity="0.900000036"></path>
                <path d="M21.7228923,15.1336856 C22.0002769,15.1336856 22.1844308,14.9463946 22.1844308,14.6654582 L22.1844308,13.4948896 C22.1844308,13.2139532 22.0002769,13.0266622 21.7228923,13.0266622 C21.4459692,13.0266622 21.2613538,13.2139532 21.2613538,13.4948896 L21.2613538,14.6654582 C21.2613538,14.8995719 21.4921231,15.1336856 21.7228923,15.1336856" id="Fill-23" opacity="0.900000036"></path>
                <path d="M23.4616308,18.1304816 C23.7385538,18.1304816 23.9231692,17.9431906 23.9231692,17.6622542 L23.9231692,16.4916856 C23.9231692,16.2102809 23.7385538,16.0234582 23.4616308,16.0234582 C23.1842462,16.0234582 23.0000923,16.2102809 23.0000923,16.4916856 L23.0000923,17.6622542 C23.0000923,17.8963679 23.1842462,18.1304816 23.4616308,18.1304816" id="Fill-24" opacity="0.900000036"></path>
                <path d="M21.7228923,18.1304816 C22.0002769,18.1304816 22.1844308,17.9431906 22.1844308,17.6622542 L22.1844308,16.4916856 C22.1844308,16.2102809 22.0002769,16.0234582 21.7228923,16.0234582 C21.4459692,16.0234582 21.2613538,16.2102809 21.2613538,16.4916856 L21.2613538,17.6622542 C21.2613538,17.8963679 21.4921231,18.1304816 21.7228923,18.1304816" id="Fill-26" opacity="0.900000036"></path>
                <path d="M23.4616308,21.126903 C23.7385538,21.126903 23.9231692,20.9400803 23.9231692,20.6586756 L23.9231692,19.488107 C23.9231692,19.2071706 23.7385538,19.0198796 23.4616308,19.0198796 C23.1842462,19.0198796 23.0000923,19.2071706 23.0000923,19.488107 L23.0000923,20.6586756 C23.0000923,20.8927893 23.1842462,21.126903 23.4616308,21.126903" id="Fill-27" opacity="0.900000036"></path>
                <path d="M21.7228923,21.126903 C22.0002769,21.126903 22.1844308,20.9400803 22.1844308,20.6586756 L22.1844308,19.488107 C22.1844308,19.2071706 22.0002769,19.0198796 21.7228923,19.0198796 C21.4459692,19.0198796 21.2613538,19.2071706 21.2613538,19.488107 L21.2613538,20.6586756 C21.2613538,20.8927893 21.4921231,21.126903 21.7228923,21.126903" id="Fill-29" opacity="0.900000036"></path>
                <path d="M23.4616308,24.1237458 C23.7385538,24.1237458 23.9231692,23.9364548 23.9231692,23.6555184 L23.9231692,22.4849498 C23.9231692,22.2040134 23.7385538,22.0167224 23.4616308,22.0167224 C23.1842462,22.0167224 23.0000923,22.2040134 23.0000923,22.4849498 L23.0000923,23.6555184 C23.0000923,23.8896321 23.1842462,24.1237458 23.4616308,24.1237458" id="Fill-30" opacity="0.900000036"></path>
                <path d="M21.7228923,24.1237458 C22.0002769,24.1237458 22.1844308,23.9364548 22.1844308,23.6555184 L22.1844308,22.4849498 C22.1844308,22.2040134 22.0002769,22.0167224 21.7228923,22.0167224 C21.4459692,22.0167224 21.2613538,22.2040134 21.2613538,22.4849498 L21.2613538,23.6555184 C21.2613538,23.8896321 21.4921231,24.1237458 21.7228923,24.1237458" id="Fill-32" opacity="0.900000036"></path>
                <path d="M6.10773846,14.2909699 C5.83081538,14.2909699 5.6462,14.4782609 5.6462,14.7591973 L5.6462,18.1304348 C5.6462,18.4113712 5.83081538,18.5986622 6.10773846,18.5986622 C6.38466154,18.5986622 6.56927692,18.4113712 6.56927692,18.1304348 L6.56927692,14.7591973 C6.56927692,14.4782609 6.38466154,14.2909699 6.10773846,14.2909699" id="Fill-33" opacity="0.900000036"></path>
                <path d="M4.5538,14.2909699 C4.27687692,14.2909699 4.09226154,14.4782609 4.09226154,14.7591973 L4.09226154,18.1304348 C4.09226154,18.4113712 4.27687692,18.5986622 4.5538,18.5986622 C4.83072308,18.5986622 5.01533846,18.4113712 5.01533846,18.1304348 L5.01533846,14.7591973 C5.01533846,14.4782609 4.83072308,14.2909699 4.5538,14.2909699" id="Fill-35" opacity="0.900000036"></path>
                <path d="M6.10773846,8.81261538 C5.83081538,8.81261538 5.6462,8.99990635 5.6462,9.28084281 L5.6462,12.6520803 C5.6462,12.9330167 5.83081538,13.1203077 6.10773846,13.1203077 C6.38466154,13.1203077 6.56927692,12.9330167 6.56927692,12.6520803 L6.56927692,9.28084281 C6.56927692,8.99990635 6.38466154,8.81261538 6.10773846,8.81261538" id="Fill-36" opacity="0.900000036"></path>
                <path d="M4.5538,8.81261538 C4.27687692,8.81261538 4.09226154,8.99990635 4.09226154,9.28084281 L4.09226154,12.6520803 C4.09226154,12.9330167 4.27687692,13.1203077 4.5538,13.1203077 C4.83072308,13.1203077 5.01533846,12.9330167 5.01533846,12.6520803 L5.01533846,9.28084281 C5.01533846,8.99990635 4.83072308,8.81261538 4.5538,8.81261538" id="Fill-38" opacity="0.900000036"></path>
                <path d="M6.10773846,19.628903 C5.83081538,19.628903 5.6462,19.8157258 5.6462,20.0971304 L5.6462,23.4678997 C5.6462,23.7493043 5.83081538,23.9361271 6.10773846,23.9361271 C6.38466154,23.9361271 6.56927692,23.7493043 6.56927692,23.4678997 L6.56927692,20.0971304 C6.56927692,19.8157258 6.38466154,19.628903 6.10773846,19.628903" id="Fill-39" opacity="0.900000036"></path>
                <path d="M4.5538,19.628903 C4.27687692,19.628903 4.09226154,19.8157258 4.09226154,20.0971304 L4.09226154,23.4678997 C4.09226154,23.7493043 4.27687692,23.9361271 4.5538,23.9361271 C4.83072308,23.9361271 5.01533846,23.7493043 5.01533846,23.4678997 L5.01533846,20.0971304 C5.01533846,19.8157258 4.83072308,19.628903 4.5538,19.628903" id="Fill-41" opacity="0.900000036"></path>
                <path d="M16.4615385,6.08438966 C16.7384615,6.08438966 16.9230769,5.99376402 16.9230769,5.85782557 L16.9230769,4.22656409 C16.9230769,4.09062564 16.7384615,4 16.4615385,4 C16.1846154,4 16,4.09062564 16,4.22656409 L16,5.85782557 C16,5.97110761 16.2307692,6.08438966 16.4615385,6.08438966" id="Fill-45" opacity="0.900000036"></path>
                <path d="M14.4615385,4 C14.1846154,4 14,4.09062564 14,4.22656409 L14,5.85782557 C14,5.99376402 14.1846154,6.08438966 14.4615385,6.08438966 C14.7384615,6.08438966 14.9230769,5.99376402 14.9230769,5.85782557 L14.9230769,4.22656409 C14.9230769,4.11328205 14.6923077,4 14.4615385,4" id="Fill-47" opacity="0.900000036"></path>
                <path d="M13.7693231,15.1336856 C14.0462462,15.1336856 14.2308615,14.9463946 14.2308615,14.6654582 L14.2308615,13.4948896 C14.2308615,13.2139532 14.0462462,13.0266622 13.7693231,13.0266622 C13.4924,13.0266622 13.3077846,13.2139532 13.3077846,13.4948896 L13.3077846,14.6654582 C13.3077846,14.8995719 13.5385538,15.1336856 13.7693231,15.1336856" id="Fill-48" opacity="0.900000036"></path>
                <path d="M12.0770154,15.1336856 C12.3539385,15.1336856 12.5385538,14.9463946 12.5385538,14.6654582 L12.5385538,13.4948896 C12.5385538,13.2139532 12.3539385,13.0266622 12.0770154,13.0266622 C11.8000923,13.0266622 11.6154769,13.2139532 11.6154769,13.4948896 L11.6154769,14.6654582 C11.6154769,14.8995719 11.8000923,15.1336856 12.0770154,15.1336856" id="Fill-50" opacity="0.900000036"></path>
                <path d="M13.7693231,18.1304816 C14.0462462,18.1304816 14.2308615,17.9431906 14.2308615,17.6622542 L14.2308615,16.4916856 C14.2308615,16.2102809 14.0462462,16.0234582 13.7693231,16.0234582 C13.4924,16.0234582 13.3077846,16.2102809 13.3077846,16.4916856 L13.3077846,17.6622542 C13.3077846,17.8963679 13.5385538,18.1304816 13.7693231,18.1304816" id="Fill-51" opacity="0.900000036"></path>
                <path d="M12.0770154,18.1304816 C12.3539385,18.1304816 12.5385538,17.9431906 12.5385538,17.6622542 L12.5385538,16.4916856 C12.5385538,16.2102809 12.3539385,16.0234582 12.0770154,16.0234582 C11.8000923,16.0234582 11.6154769,16.2102809 11.6154769,16.4916856 L11.6154769,17.6622542 C11.6154769,17.8963679 11.8000923,18.1304816 12.0770154,18.1304816" id="Fill-53" opacity="0.900000036"></path>
                <path d="M13.7693231,21.126903 C14.0462462,21.126903 14.2308615,20.9400803 14.2308615,20.6586756 L14.2308615,19.488107 C14.2308615,19.2071706 14.0462462,19.0198796 13.7693231,19.0198796 C13.4924,19.0198796 13.3077846,19.2071706 13.3077846,19.488107 L13.3077846,20.6586756 C13.3077846,20.8927893 13.5385538,21.126903 13.7693231,21.126903" id="Fill-54" opacity="0.900000036"></path>
                <path d="M12.0770154,21.126903 C12.3539385,21.126903 12.5385538,20.9400803 12.5385538,20.6586756 L12.5385538,19.488107 C12.5385538,19.2071706 12.3539385,19.0198796 12.0770154,19.0198796 C11.8000923,19.0198796 11.6154769,19.2071706 11.6154769,19.488107 L11.6154769,20.6586756 C11.6154769,20.8927893 11.8000923,21.126903 12.0770154,21.126903" id="Fill-56" opacity="0.900000036"></path>
                <path d="M13.7693231,24.1237458 C14.0462462,24.1237458 14.2308615,23.9364548 14.2308615,23.6555184 L14.2308615,22.4849498 C14.2308615,22.2040134 14.0462462,22.0167224 13.7693231,22.0167224 C13.4924,22.0167224 13.3077846,22.2040134 13.3077846,22.4849498 L13.3077846,23.6555184 C13.3077846,23.8896321 13.5385538,24.1237458 13.7693231,24.1237458" id="Fill-57" opacity="0.900000036"></path>
                <path d="M12.0770154,24.1237458 C12.3539385,24.1237458 12.5385538,23.9364548 12.5385538,23.6555184 L12.5385538,22.4849498 C12.5385538,22.2040134 12.3539385,22.0167224 12.0770154,22.0167224 C11.8000923,22.0167224 11.6154769,22.2040134 11.6154769,22.4849498 L11.6154769,23.6555184 C11.6154769,23.8896321 11.8000923,24.1237458 12.0770154,24.1237458" id="Fill-59" opacity="0.900000036"></path>
            </g>
        </g>
    </g>
</svg>
