<?xml version="1.0" encoding="UTF-8"?>
<svg width="36px" height="32px" viewBox="0 0 36 32" version="1.1" xmlns="http://www.w3.org/2000/svg" xmlns:xlink="http://www.w3.org/1999/xlink">
    <!-- Generator: Sketch 48.2 (47327) - http://www.bohemiancoding.com/sketch -->
    <title>ic_city_store</title>
    <desc>Created with Sketch.</desc>
    <defs></defs>
    <g id="OVERVIEW:-attraction-power" stroke="none" stroke-width="1" fill="none" fill-rule="evenodd" transform="translate(-163.000000, -259.000000)">
        <g id="ic_city_store" transform="translate(160.000000, 258.000000)" fill="#999999">
            <g transform="translate(3.000000, 1.000000)">
                <path d="M2.03076923,30.9966555 L8.63076923,30.9966555 L8.63076923,12.4080268 L2.03076923,12.4080268 L2.03076923,30.9966555 Z M16.0615385,15.2173913 L16.0153846,30.9966555 L9.73846154,30.9966555 L9.73846154,15.2173913 L16.0615385,15.2173913 Z M11.9076923,0.936454849 L18.5076923,0.936454849 L18.5076923,16.0602007 C18.5076923,16.1070234 18.5076923,16.2006689 18.5538462,16.2474916 C18.5076923,16.2943144 18.5076923,16.3879599 18.5076923,16.4347826 L18.5076923,30.9966555 L16.8923077,30.9966555 L16.9846154,14.7491639 C16.9846154,14.6086957 16.9384615,14.5150502 16.8461538,14.4214047 C16.7538462,14.3277592 16.6615385,14.2809365 16.5230769,14.2809365 L11.9076923,14.2809365 L11.9076923,0.936454849 Z M21.3692308,15.3110368 L23.7692308,15.3110368 C23.9538462,15.3110368 24.3230769,15.5919732 24.4615385,16.0133779 L20.6769231,16.0133779 C20.8153846,15.5451505 21.1846154,15.3110368 21.3692308,15.3110368 Z M23.2615385,14.0468227 C23.3076923,14.0468227 23.4,14.187291 23.4923077,14.3745819 L21.6461538,14.3745819 C21.7384615,14.187291 21.8307692,14.0936455 21.8307692,14.0468227 L23.2615385,14.0468227 Z M25.6615385,30.9966555 L19.4307692,30.9966555 L19.4307692,16.90301 L25.7076923,16.90301 L25.6615385,30.9966555 Z M26.6307692,30.9966555 L33.2764615,30.9966555 L33.2764615,10.7692308 L26.6307692,10.7692308 L26.6307692,30.9966555 Z M35.1692308,31.9331104 C35.4461538,31.9331104 35.6307692,31.7458194 35.6307692,31.4648829 C35.6307692,31.1839465 35.4461538,30.9966555 35.1692308,30.9966555 L34.2,30.9966555 L34.2,10.3010033 C34.2,10.0200669 34.0153846,9.83277592 33.7384615,9.83277592 L26.1692308,9.83277592 C25.8923077,9.83277592 25.7076923,10.0200669 25.7076923,10.3010033 L25.7076923,15.9665552 L25.4307692,15.9665552 C25.2923077,15.3578595 24.9230769,14.8428094 24.5076923,14.6086957 C24.4153846,13.812709 23.9076923,13.1103679 23.3076923,13.1103679 L23.0307692,13.1103679 L23.0307692,11.1438127 C23.0307692,10.8628763 22.8461538,10.6755853 22.5692308,10.6755853 C22.2923077,10.6755853 22.1076923,10.8628763 22.1076923,11.1438127 L22.1076923,13.1103679 L21.8307692,13.1103679 C21.2769231,13.1103679 20.7230769,13.812709 20.6307692,14.6086957 C20.2153846,14.8896321 19.8,15.4046823 19.7076923,15.9665552 L19.4307692,15.9665552 L19.4307692,0.468227425 C19.4307692,0.18729097 19.2461538,0 18.9692308,0 L11.4461538,0 C11.1692308,0 10.9846154,0.18729097 10.9846154,0.468227425 L10.9846154,14.2809365 L9.55384615,14.2809365 L9.55384615,11.9397993 C9.55384615,11.6588629 9.36923077,11.4715719 9.09230769,11.4715719 L1.56923077,11.4715719 C1.29230769,11.4715719 1.10769231,11.6588629 1.10769231,11.9397993 L1.10769231,30.9966555 L0.461538462,30.9966555 C0.184615385,30.9966555 0,31.1839465 0,31.4648829 C0,31.7458194 0.230769231,31.9331104 0.507692308,31.9331104 L35.1692308,31.9331104 Z" id="Fill-1"></path>
                <path d="M30.0615385,16.1404682 C30.3384615,16.1404682 30.5230769,15.9531773 30.5230769,15.6722408 L30.5230769,14.5016722 C30.5230769,14.2207358 30.3384615,14.0334448 30.0615385,14.0334448 C29.7846154,14.0334448 29.6,14.2207358 29.6,14.5016722 L29.6,15.6722408 C29.6,15.9063545 29.7846154,16.1404682 30.0615385,16.1404682" id="Fill-5" opacity="0.900000036"></path>
                <path d="M30.0615385,22.1336856 C30.3384615,22.1336856 30.5230769,21.9463946 30.5230769,21.6654582 L30.5230769,20.4948896 C30.5230769,20.2139532 30.3384615,20.0266622 30.0615385,20.0266622 C29.7846154,20.0266622 29.6,20.2139532 29.6,20.4948896 L29.6,21.6654582 C29.6,21.8995719 29.7846154,22.1336856 30.0615385,22.1336856" id="Fill-11" opacity="0.900000036"></path>
                <path d="M30.0615385,28.126903 C30.3384615,28.126903 30.5230769,27.9400803 30.5230769,27.6586756 L30.5230769,26.488107 C30.5230769,26.2071706 30.3384615,26.0198796 30.0615385,26.0198796 C29.7846154,26.0198796 29.6,26.2071706 29.6,26.488107 L29.6,27.6586756 C29.6,27.8927893 29.7846154,28.126903 30.0615385,28.126903" id="Fill-17" opacity="0.900000036"></path>
                <path d="M23.4616308,20.1336856 C23.7385538,20.1336856 23.9231692,19.9463946 23.9231692,19.6654582 L23.9231692,18.4948896 C23.9231692,18.2139532 23.7385538,18.0266622 23.4616308,18.0266622 C23.1842462,18.0266622 23.0000923,18.2139532 23.0000923,18.4948896 L23.0000923,19.6654582 C23.0000923,19.8995719 23.1842462,20.1336856 23.4616308,20.1336856" id="Fill-21" opacity="0.900000036"></path>
                <path d="M21.7228923,20.1336856 C22.0002769,20.1336856 22.1844308,19.9463946 22.1844308,19.6654582 L22.1844308,18.4948896 C22.1844308,18.2139532 22.0002769,18.0266622 21.7228923,18.0266622 C21.4459692,18.0266622 21.2613538,18.2139532 21.2613538,18.4948896 L21.2613538,19.6654582 C21.2613538,19.8995719 21.4921231,20.1336856 21.7228923,20.1336856" id="Fill-23" opacity="0.900000036"></path>
                <path d="M23.4616308,23.1304816 C23.7385538,23.1304816 23.9231692,22.9431906 23.9231692,22.6622542 L23.9231692,21.4916856 C23.9231692,21.2102809 23.7385538,21.0234582 23.4616308,21.0234582 C23.1842462,21.0234582 23.0000923,21.2102809 23.0000923,21.4916856 L23.0000923,22.6622542 C23.0000923,22.8963679 23.1842462,23.1304816 23.4616308,23.1304816" id="Fill-24" opacity="0.900000036"></path>
                <path d="M21.7228923,23.1304816 C22.0002769,23.1304816 22.1844308,22.9431906 22.1844308,22.6622542 L22.1844308,21.4916856 C22.1844308,21.2102809 22.0002769,21.0234582 21.7228923,21.0234582 C21.4459692,21.0234582 21.2613538,21.2102809 21.2613538,21.4916856 L21.2613538,22.6622542 C21.2613538,22.8963679 21.4921231,23.1304816 21.7228923,23.1304816" id="Fill-26" opacity="0.900000036"></path>
                <path d="M23.4616308,26.126903 C23.7385538,26.126903 23.9231692,25.9400803 23.9231692,25.6586756 L23.9231692,24.488107 C23.9231692,24.2071706 23.7385538,24.0198796 23.4616308,24.0198796 C23.1842462,24.0198796 23.0000923,24.2071706 23.0000923,24.488107 L23.0000923,25.6586756 C23.0000923,25.8927893 23.1842462,26.126903 23.4616308,26.126903" id="Fill-27" opacity="0.900000036"></path>
                <path d="M21.7228923,26.126903 C22.0002769,26.126903 22.1844308,25.9400803 22.1844308,25.6586756 L22.1844308,24.488107 C22.1844308,24.2071706 22.0002769,24.0198796 21.7228923,24.0198796 C21.4459692,24.0198796 21.2613538,24.2071706 21.2613538,24.488107 L21.2613538,25.6586756 C21.2613538,25.8927893 21.4921231,26.126903 21.7228923,26.126903" id="Fill-29" opacity="0.900000036"></path>
                <path d="M23.4616308,29.1237458 C23.7385538,29.1237458 23.9231692,28.9364548 23.9231692,28.6555184 L23.9231692,27.4849498 C23.9231692,27.2040134 23.7385538,27.0167224 23.4616308,27.0167224 C23.1842462,27.0167224 23.0000923,27.2040134 23.0000923,27.4849498 L23.0000923,28.6555184 C23.0000923,28.8896321 23.1842462,29.1237458 23.4616308,29.1237458" id="Fill-30" opacity="0.900000036"></path>
                <path d="M21.7228923,29.1237458 C22.0002769,29.1237458 22.1844308,28.9364548 22.1844308,28.6555184 L22.1844308,27.4849498 C22.1844308,27.2040134 22.0002769,27.0167224 21.7228923,27.0167224 C21.4459692,27.0167224 21.2613538,27.2040134 21.2613538,27.4849498 L21.2613538,28.6555184 C21.2613538,28.8896321 21.4921231,29.1237458 21.7228923,29.1237458" id="Fill-32" opacity="0.900000036"></path>
                <path d="M6.10773846,19.2909699 C5.83081538,19.2909699 5.6462,19.4782609 5.6462,19.7591973 L5.6462,23.1304348 C5.6462,23.4113712 5.83081538,23.5986622 6.10773846,23.5986622 C6.38466154,23.5986622 6.56927692,23.4113712 6.56927692,23.1304348 L6.56927692,19.7591973 C6.56927692,19.4782609 6.38466154,19.2909699 6.10773846,19.2909699" id="Fill-33" opacity="0.900000036"></path>
                <path d="M4.5538,19.2909699 C4.27687692,19.2909699 4.09226154,19.4782609 4.09226154,19.7591973 L4.09226154,23.1304348 C4.09226154,23.4113712 4.27687692,23.5986622 4.5538,23.5986622 C4.83072308,23.5986622 5.01533846,23.4113712 5.01533846,23.1304348 L5.01533846,19.7591973 C5.01533846,19.4782609 4.83072308,19.2909699 4.5538,19.2909699" id="Fill-35" opacity="0.900000036"></path>
                <path d="M6.10773846,13.8126154 C5.83081538,13.8126154 5.6462,13.9999064 5.6462,14.2808428 L5.6462,17.6520803 C5.6462,17.9330167 5.83081538,18.1203077 6.10773846,18.1203077 C6.38466154,18.1203077 6.56927692,17.9330167 6.56927692,17.6520803 L6.56927692,14.2808428 C6.56927692,13.9999064 6.38466154,13.8126154 6.10773846,13.8126154" id="Fill-36" opacity="0.900000036"></path>
                <path d="M4.5538,13.8126154 C4.27687692,13.8126154 4.09226154,13.9999064 4.09226154,14.2808428 L4.09226154,17.6520803 C4.09226154,17.9330167 4.27687692,18.1203077 4.5538,18.1203077 C4.83072308,18.1203077 5.01533846,17.9330167 5.01533846,17.6520803 L5.01533846,14.2808428 C5.01533846,13.9999064 4.83072308,13.8126154 4.5538,13.8126154" id="Fill-38" opacity="0.900000036"></path>
                <path d="M6.10773846,24.628903 C5.83081538,24.628903 5.6462,24.8157258 5.6462,25.0971304 L5.6462,28.4678997 C5.6462,28.7493043 5.83081538,28.9361271 6.10773846,28.9361271 C6.38466154,28.9361271 6.56927692,28.7493043 6.56927692,28.4678997 L6.56927692,25.0971304 C6.56927692,24.8157258 6.38466154,24.628903 6.10773846,24.628903" id="Fill-39" opacity="0.900000036"></path>
                <path d="M4.5538,24.628903 C4.27687692,24.628903 4.09226154,24.8157258 4.09226154,25.0971304 L4.09226154,28.4678997 C4.09226154,28.7493043 4.27687692,28.9361271 4.5538,28.9361271 C4.83072308,28.9361271 5.01533846,28.7493043 5.01533846,28.4678997 L5.01533846,25.0971304 C5.01533846,24.8157258 4.83072308,24.628903 4.5538,24.628903" id="Fill-41" opacity="0.900000036"></path>
                <path d="M16.4615385,9.08438966 C16.7384615,9.08438966 16.9230769,8.99376402 16.9230769,8.85782557 L16.9230769,7.22656409 C16.9230769,7.09062564 16.7384615,7 16.4615385,7 C16.1846154,7 16,7.09062564 16,7.22656409 L16,8.85782557 C16,8.97110761 16.2307692,9.08438966 16.4615385,9.08438966" id="Fill-45" opacity="0.900000036"></path>
                <path d="M16.4615385,5 C16.7384615,5 16.9230769,4.90937436 16.9230769,4.77343591 L16.9230769,3.14217443 C16.9230769,3.00623598 16.7384615,2.91561034 16.4615385,2.91561034 C16.1846154,2.91561034 16,3.00623598 16,3.14217443 L16,4.77343591 C16,4.88671795 16.2307692,5 16.4615385,5" id="Fill-45-Copy" opacity="0.900000036"></path>
                <path d="M14.4615385,7 C14.1846154,7 14,7.09062564 14,7.22656409 L14,8.85782557 C14,8.99376402 14.1846154,9.08438966 14.4615385,9.08438966 C14.7384615,9.08438966 14.9230769,8.99376402 14.9230769,8.85782557 L14.9230769,7.22656409 C14.9230769,7.11328205 14.6923077,7 14.4615385,7" id="Fill-47" opacity="0.900000036"></path>
                <path d="M14.4615385,2.91561034 C14.1846154,2.91561034 14,3.00623598 14,3.14217443 L14,4.77343591 C14,4.90937436 14.1846154,5 14.4615385,5 C14.7384615,5 14.9230769,4.90937436 14.9230769,4.77343591 L14.9230769,3.14217443 C14.9230769,3.02889239 14.6923077,2.91561034 14.4615385,2.91561034" id="Fill-47-Copy" opacity="0.900000036"></path>
                <path d="M13.7693231,20.1336856 C14.0462462,20.1336856 14.2308615,19.9463946 14.2308615,19.6654582 L14.2308615,18.4948896 C14.2308615,18.2139532 14.0462462,18.0266622 13.7693231,18.0266622 C13.4924,18.0266622 13.3077846,18.2139532 13.3077846,18.4948896 L13.3077846,19.6654582 C13.3077846,19.8995719 13.5385538,20.1336856 13.7693231,20.1336856" id="Fill-48" opacity="0.900000036"></path>
                <path d="M12.0770154,20.1336856 C12.3539385,20.1336856 12.5385538,19.9463946 12.5385538,19.6654582 L12.5385538,18.4948896 C12.5385538,18.2139532 12.3539385,18.0266622 12.0770154,18.0266622 C11.8000923,18.0266622 11.6154769,18.2139532 11.6154769,18.4948896 L11.6154769,19.6654582 C11.6154769,19.8995719 11.8000923,20.1336856 12.0770154,20.1336856" id="Fill-50" opacity="0.900000036"></path>
                <path d="M13.7693231,23.1304816 C14.0462462,23.1304816 14.2308615,22.9431906 14.2308615,22.6622542 L14.2308615,21.4916856 C14.2308615,21.2102809 14.0462462,21.0234582 13.7693231,21.0234582 C13.4924,21.0234582 13.3077846,21.2102809 13.3077846,21.4916856 L13.3077846,22.6622542 C13.3077846,22.8963679 13.5385538,23.1304816 13.7693231,23.1304816" id="Fill-51" opacity="0.900000036"></path>
                <path d="M12.0770154,23.1304816 C12.3539385,23.1304816 12.5385538,22.9431906 12.5385538,22.6622542 L12.5385538,21.4916856 C12.5385538,21.2102809 12.3539385,21.0234582 12.0770154,21.0234582 C11.8000923,21.0234582 11.6154769,21.2102809 11.6154769,21.4916856 L11.6154769,22.6622542 C11.6154769,22.8963679 11.8000923,23.1304816 12.0770154,23.1304816" id="Fill-53" opacity="0.900000036"></path>
                <path d="M13.7693231,26.126903 C14.0462462,26.126903 14.2308615,25.9400803 14.2308615,25.6586756 L14.2308615,24.488107 C14.2308615,24.2071706 14.0462462,24.0198796 13.7693231,24.0198796 C13.4924,24.0198796 13.3077846,24.2071706 13.3077846,24.488107 L13.3077846,25.6586756 C13.3077846,25.8927893 13.5385538,26.126903 13.7693231,26.126903" id="Fill-54" opacity="0.900000036"></path>
                <path d="M12.0770154,26.126903 C12.3539385,26.126903 12.5385538,25.9400803 12.5385538,25.6586756 L12.5385538,24.488107 C12.5385538,24.2071706 12.3539385,24.0198796 12.0770154,24.0198796 C11.8000923,24.0198796 11.6154769,24.2071706 11.6154769,24.488107 L11.6154769,25.6586756 C11.6154769,25.8927893 11.8000923,26.126903 12.0770154,26.126903" id="Fill-56" opacity="0.900000036"></path>
                <path d="M13.7693231,29.1237458 C14.0462462,29.1237458 14.2308615,28.9364548 14.2308615,28.6555184 L14.2308615,27.4849498 C14.2308615,27.2040134 14.0462462,27.0167224 13.7693231,27.0167224 C13.4924,27.0167224 13.3077846,27.2040134 13.3077846,27.4849498 L13.3077846,28.6555184 C13.3077846,28.8896321 13.5385538,29.1237458 13.7693231,29.1237458" id="Fill-57" opacity="0.900000036"></path>
                <path d="M12.0770154,29.1237458 C12.3539385,29.1237458 12.5385538,28.9364548 12.5385538,28.6555184 L12.5385538,27.4849498 C12.5385538,27.2040134 12.3539385,27.0167224 12.0770154,27.0167224 C11.8000923,27.0167224 11.6154769,27.2040134 11.6154769,27.4849498 L11.6154769,28.6555184 C11.6154769,28.8896321 11.8000923,29.1237458 12.0770154,29.1237458" id="Fill-59" opacity="0.900000036"></path>
            </g>
        </g>
    </g>
</svg>