<?xml version="1.0" encoding="UTF-8"?>
<svg width="56px" height="56px" viewBox="0 0 56 56" version="1.1" xmlns="http://www.w3.org/2000/svg" xmlns:xlink="http://www.w3.org/1999/xlink">
    <!-- Generator: Sketch 48.2 (47327) - http://www.bohemiancoding.com/sketch -->
    <title>share-button</title>
    <desc>Created with Sketch.</desc>
    <defs>
        <filter x="-22.7%" y="-18.2%" width="145.5%" height="145.5%" filterUnits="objectBoundingBox" id="filter-1">
            <feOffset dx="0" dy="2" in="SourceAlpha" result="shadowOffsetOuter1"></feOffset>
            <feGaussianBlur stdDeviation="3" in="shadowOffsetOuter1" result="shadowBlurOuter1"></feGaussianBlur>
            <feColorMatrix values="0 0 0 0 0.847   0 0 0 0 0.847   0 0 0 0 0.847  0 0 0 1 0" type="matrix" in="shadowBlurOuter1" result="shadowMatrixOuter1"></feColorMatrix>
            <feMerge>
                <feMergeNode in="shadowMatrixOuter1"></feMergeNode>
                <feMergeNode in="SourceGraphic"></feMergeNode>
            </feMerge>
        </filter>
    </defs>
    <g id="PLUS-Options" stroke="none" stroke-width="1" fill="none" fill-rule="evenodd" transform="translate(-92.000000, -415.000000)">
        <g id="share-button" transform="translate(89.000000, 410.000000)">
            <g id="boton-copy-8" filter="url(#filter-1)" transform="translate(31.112698, 31.112698) rotate(-45.000000) translate(-31.112698, -31.112698) translate(9.112698, 9.112698)">
                <circle id="Oval" fill="#5F639E" cx="22" cy="22" r="22"></circle>
                <g id="Page-1" transform="translate(20.792893, 20.792893) rotate(-315.000000) translate(-20.792893, -20.792893) translate(10.292893, 8.292893)" fill="#FFFFFF">
                    <path d="M15.9883721,18.0231977 C17.4436047,18.0231977 18.6046512,19.1842442 18.6046512,20.6394767 C18.6046512,22.095 17.4436047,23.2557558 15.9883721,23.2557558 C14.5331395,23.2557558 13.372093,22.095 13.372093,20.6394767 C13.372093,19.1842442 14.5331395,18.0231977 15.9883721,18.0231977 M4.36046512,9.88366279 C5.81569767,9.88366279 6.97674419,11.0447093 6.97674419,12.4999419 C6.97674419,13.9551744 5.81569767,15.1162209 4.36046512,15.1162209 C2.90523256,15.1162209 1.74418605,13.9551744 1.74418605,12.4999419 C1.74418605,11.0447093 2.90523256,9.88366279 4.36046512,9.88366279 M15.9883721,1.74412791 C17.4436047,1.74412791 18.6046512,2.90517442 18.6046512,4.36040698 C18.6046512,5.81563953 17.4436047,6.97668605 15.9883721,6.97668605 C14.5331395,6.97668605 13.372093,5.81563953 13.372093,4.36040698 C13.372093,2.90517442 14.5331395,1.74412791 15.9883721,1.74412791 M15.9883721,-5.81395347e-05 C13.590407,-5.81395347e-05 11.627907,1.96244186 11.627907,4.36040698 C11.627907,4.73511628 11.6831395,5.09383721 11.7732558,5.44151163 L7.04040698,9.06622093 C6.2997093,8.48627907 5.36831395,8.13947674 4.36046512,8.13947674 C1.9625,8.13947674 -1.77635684e-13,10.1019767 -1.77635684e-13,12.4999419 C-1.77635684e-13,14.897907 1.9625,16.860407 4.36046512,16.860407 C5.37267442,16.860407 6.30726744,16.5092442 7.0494186,15.9246512 L11.7732558,19.5493605 C11.6819767,19.8996512 11.627907,20.2618605 11.627907,20.6394767 C11.627907,23.0374419 13.590407,24.9999419 15.9883721,24.9999419 C18.3863372,24.9999419 20.3488372,23.0374419 20.3488372,20.6394767 C20.3488372,18.2415116 18.3863372,16.2790116 15.9883721,16.2790116 C14.5982558,16.2790116 13.3543605,16.9380233 12.5543605,17.9595349 L8.18488372,14.589186 C8.52761628,13.9673837 8.72093023,13.2566279 8.72093023,12.4999419 C8.72093023,11.739186 8.52238372,11.0261047 8.17587209,10.4013953 L12.5543605,7.03104651 C13.3540698,8.05604651 14.5956395,8.72087209 15.9883721,8.72087209 C18.3863372,8.72087209 20.3488372,6.75837209 20.3488372,4.36040698 C20.3488372,1.96244186 18.3863372,-5.81395347e-05 15.9883721,-5.81395347e-05" id="Fill-1"></path>
                </g>
            </g>
        </g>
    </g>
</svg>