<?xml version="1.0" encoding="UTF-8"?>
<svg width="26px" height="26px" viewBox="0 0 26 26" version="1.1" xmlns="http://www.w3.org/2000/svg" xmlns:xlink="http://www.w3.org/1999/xlink">
    <!-- Generator: Sketch 48.2 (47327) - http://www.bohemiancoding.com/sketch -->
    <title>user-profile</title>
    <desc>Created with Sketch.</desc>
    <defs></defs>
    <g id="Icons-FUNNEL-ATTRACTION" stroke="none" stroke-width="1" fill="none" fill-rule="evenodd" transform="translate(-533.000000, -423.000000)">
        <g id="icon/standard/user-profile" transform="translate(533.000000, 423.000000)" fill="#4A4A4A">
            <g id="user-profile">
                <g id="Shape">
                    <path d="M13,0 C5.81966667,0 0,5.81966667 0,13 C0,20.1803333 5.81966667,26 13,26 C20.1803333,26 26,20.1803333 26,13 C26,5.81966667 20.1803333,0 13,0 L13,0 Z M16.6125556,10.1862222 C16.6125556,12.1781111 14.9976667,13.7973333 13.0014444,13.7973333 C11.0052222,13.7973333 9.39033333,12.1781111 9.39033333,10.1862222 C9.39033333,8.19 11.0052222,6.57511111 13.0014444,6.57511111 C14.9976667,6.57511111 16.6125556,8.19 16.6125556,10.1862222 L16.6125556,10.1862222 Z M13.0014444,15.0554444 C16.315,15.0554444 19.0796667,17.3001111 19.929,20.3435556 C18.1176667,22.0552222 15.6837778,23.1111111 13,23.1111111 C10.3191111,23.1111111 7.88522222,22.0552222 6.07388889,20.3464444 C6.92322222,17.3001111 9.68644444,15.0554444 13.0014444,15.0554444 L13.0014444,15.0554444 Z"></path>
                </g>
            </g>
        </g>
    </g>
</svg>