<svg id="Layer_1" data-name="Layer 1" xmlns="http://www.w3.org/2000/svg" xmlns:xlink="http://www.w3.org/1999/xlink" viewBox="0 0 411.82 80"><defs><style>.cls-1{fill:url(#linear-gradient);}.cls-2{fill:#fff;}.cls-3{stroke-linecap:round;stroke-miterlimit:10;stroke-width:2px;fill:url(#New_Gradient_Swatch);stroke:url(#linear-gradient-2);}</style><linearGradient id="linear-gradient" x1="98.5" y1="146.11" x2="98.5" y2="106.24" gradientTransform="matrix(1, 0, 0, -1, 0, 166)" gradientUnits="userSpaceOnUse"><stop offset="0" stop-color="#00e6a3"/><stop offset="1" stop-color="#29a5e9"/></linearGradient><linearGradient id="New_Gradient_Swatch" x1="210.6" y1="59.95" x2="210.6" y2="19.8" gradientTransform="matrix(1, 0, 0, 1, 0, 0)" xlink:href="#linear-gradient"/><linearGradient id="linear-gradient-2" x1="210.6" y1="18.8" x2="210.6" y2="60.95" gradientUnits="userSpaceOnUse"><stop offset="0" stop-color="#29a5e9"/><stop offset="1" stop-color="#29a5e9"/></linearGradient></defs><title>Artboard 1</title><path classNameName="cls-1" d="M29.72,60A3.82,3.82,0,0,1,27,58.85L21.13,53A3.84,3.84,0,0,1,20,50.26V21.15a1.09,1.09,0,0,1,1.09-1.09H29A1.09,1.09,0,0,1,30,21.15V49a1.24,1.24,0,0,0,1.33,1.33h14.3a1.09,1.09,0,0,1,1.09,1.09v7.53A1.09,1.09,0,0,1,45.67,60Zm51.09,0a3.82,3.82,0,0,0,2.72-1.13L89.41,53a3.84,3.84,0,0,0,1.13-2.72V21.15a1.09,1.09,0,0,0-1.09-1.09H81.58a1.09,1.09,0,0,0-1.09,1.09V49a1.24,1.24,0,0,1-1.33,1.33H68.37A1.24,1.24,0,0,1,67,49V21.15a1.09,1.09,0,0,0-1.09-1.09H58.08A1.09,1.09,0,0,0,57,21.15V50.26A3.82,3.82,0,0,0,58.12,53L64,58.85A3.84,3.84,0,0,0,66.71,60Zm20.62-9.72A3.82,3.82,0,0,0,102.56,53l5.88,5.88A3.84,3.84,0,0,0,111.16,60h19.69a1.09,1.09,0,0,0,1.09-1.09V51.36a1.09,1.09,0,0,0-1.09-1.09H112.79a1.24,1.24,0,0,1-1.33-1.33V31.08a1.24,1.24,0,0,1,1.33-1.33h18.05a1.09,1.09,0,0,0,1.09-1.09V21.09A1.09,1.09,0,0,0,130.84,20H111.16a3.82,3.82,0,0,0-2.72,1.13L102.56,27a3.84,3.84,0,0,0-1.13,2.72Zm51.74-30.2a3.82,3.82,0,0,0-2.72,1.13l-5.88,5.88a3.84,3.84,0,0,0-1.13,2.72V58.89A1.09,1.09,0,0,0,144.53,60h7.87a1.09,1.09,0,0,0,1.09-1.09V47.45a1.24,1.24,0,0,1,1.33-1.33h10.79a1.24,1.24,0,0,1,1.33,1.33V58.89A1.09,1.09,0,0,0,168,60h7.87A1.09,1.09,0,0,0,177,58.89V29.78a3.82,3.82,0,0,0-1.13-2.72L170,21.19a3.84,3.84,0,0,0-2.72-1.13ZM167,37.63A1.24,1.24,0,0,1,165.62,39H154.83a1.24,1.24,0,0,1-1.33-1.33V31.09a1.24,1.24,0,0,1,1.33-1.33h10.79A1.24,1.24,0,0,1,167,31.09Z"/><path className="cls-2" d="M264.71,24.05A30.84,30.84,0,0,0,256.57,23c-5.64,0-9.11,1.91-9.11,6.53,0,10,20,7,20,20,0,7.09-4.9,10.46-12.87,10.46a32.62,32.62,0,0,1-10.42-1.63l.63-2.87A31.18,31.18,0,0,0,254.18,57c3.64,0,6-.56,7.63-1.8a6.66,6.66,0,0,0,2.45-5.57c0-10.52-20-7.37-20-19.8a9.21,9.21,0,0,1,2.51-6.69c2.22-2.25,5.7-3.15,9.68-3.15a30.73,30.73,0,0,1,8.94,1.35Z"/><path className="cls-2" d="M271.28,20.73h28.64l-.4,2.93h-12.3V59.21h-3.42V23.66H271.28Z"/><path className="cls-2" d="M317.19,60c-10.08,0-14.81-7.09-14.81-20s4.73-20,14.81-20S332,27.14,332,40,327.27,60,317.19,60Zm0-36.79c-8.43,0-11.28,6.41-11.28,16.82s2.85,16.77,11.28,16.77S328.47,50.44,328.47,40,325.62,23.21,317.19,23.21Z"/><path className="cls-2" d="M342.86,44.08V59.21h-3.42V20.73h10.88c5.13,0,8.37,1,10.36,3.26,1.59,1.8,2.73,4.28,2.73,8.21,0,6.19-2.79,9.73-7.46,11.14l8.31,15.87h-3.7L352.77,44c-.57.06-1.71.11-2.51.11Zm0-3h7.63c3.13,0,5.52-.62,7-2,1.71-1.63,2.39-3.94,2.39-6.92s-.63-4.78-2-6.24-3.64-2.25-7.8-2.25h-7.23Z"/><path className="cls-2" d="M374.28,56.29h17.54v2.92h-21V20.73h20.5l-.4,2.93H374.28V38.23H388v3H374.28Z"/><line className="cls-3" x1="210.6" y1="19.8" x2="210.6" y2="59.95"/></svg>
